<svg width="18" height="18" viewBox="0 0 18 18" fill="none" xmlns="http://www.w3.org/2000/svg">
<path fill-rule="evenodd" clip-rule="evenodd" d="M9 0.5C4.30558 0.5 0.5 4.30558 0.5 9C0.5 13.6944 4.30558 17.5 9 17.5C13.6944 17.5 17.5 13.6944 17.5 9C17.5 4.30558 13.6944 0.5 9 0.5ZM1.5 9C1.5 4.85786 4.85786 1.5 9 1.5C13.1421 1.5 16.5 4.85786 16.5 9C16.5 10.993 15.7226 12.8045 14.4545 14.1477C13.0255 12.8153 11.108 12 9.00004 12C6.89208 12 4.97454 12.8153 3.54555 14.1477C2.27741 12.8045 1.5 10.9931 1.5 9ZM4.28107 14.8297C5.56985 15.8742 7.21185 16.5 9 16.5C10.7882 16.5 12.4302 15.8742 13.719 14.8297C12.4745 13.6932 10.8182 13 9.00004 13C7.18186 13 5.52558 13.6932 4.28107 14.8297ZM9.00004 11C11.2092 11 13 9.20914 13 7C13 4.79086 11.2092 3 9.00004 3C6.7909 3 5.00004 4.79086 5.00004 7C5.00004 9.20914 6.7909 11 9.00004 11ZM9.00004 10C10.6569 10 12 8.65685 12 7C12 5.34315 10.6569 4 9.00004 4C7.34319 4 6.00004 5.34315 6.00004 7C6.00004 8.65685 7.34319 10 9.00004 10Z" fill="black"/>
</svg>
