<svg width="16" height="16" viewBox="0 0 16 16" fill="none" xmlns="http://www.w3.org/2000/svg">
<path fill-rule="evenodd" clip-rule="evenodd" d="M11.0542 0.58626C10.0847 0.191935 9.04678 -0.00722259 8 0.000200096C6.95322 -0.00722253 5.91526 0.191935 4.9458 0.58626C3.97517 0.981061 3.09237 1.56371 2.34831 2.30066C1.60425 3.03761 1.01364 3.91431 0.610581 4.88023C0.207523 5.84616 0 6.88218 0 7.92857V12.2619C0 12.7232 0.183629 13.1654 0.510165 13.4913C0.836666 13.8171 1.27928 14 1.74059 14H2.98119C3.4425 14 3.88511 13.8171 4.21162 13.4913C4.53815 13.1654 4.72178 12.7232 4.72178 12.2619V9.16667C4.72178 8.70537 4.53815 8.26317 4.21162 7.93729C3.88511 7.61145 3.4425 7.42857 2.98119 7.42857H1.0181C1.07198 6.68561 1.24566 5.95504 1.53346 5.26533C1.88562 4.42137 2.40171 3.65525 3.05201 3.01115C3.70232 2.36705 4.47399 1.85772 5.32257 1.51257C6.17115 1.16741 7.07983 0.993266 7.99622 1.0002H8.00378C8.92017 0.993266 9.82885 1.16741 10.6774 1.51257C11.526 1.85772 12.2977 2.36705 12.948 3.01115C13.5983 3.65524 14.1144 4.42137 14.4665 5.26533C14.7543 5.95504 14.928 6.68561 14.9819 7.42857H13.0188C12.5575 7.42857 12.1149 7.61145 11.7884 7.93729C11.4618 8.26317 11.2782 8.70537 11.2782 9.16667V12.2619C11.2782 12.7232 11.4618 13.1654 11.7884 13.4913C12.1149 13.8171 12.5575 14 13.0188 14H14.2594C14.5022 14 14.7398 13.9493 14.958 13.8539C14.799 14.5115 14.2065 15 13.5 15H8C7.72386 15 7.5 15.2239 7.5 15.5C7.5 15.7761 7.72386 16 8 16H13.5C14.8807 16 16 14.8807 16 13.5V7.92857C16 6.88218 15.7925 5.84616 15.3894 4.88023C14.9864 3.91431 14.3958 3.03761 13.6517 2.30066C12.9076 1.5637 12.0248 0.981061 11.0542 0.58626ZM15 11.499V8.42857H13.0188C12.8221 8.42857 12.6336 8.50658 12.4948 8.64511C12.356 8.78361 12.2782 8.97124 12.2782 9.16667V12.2619C12.2782 12.4573 12.356 12.645 12.4948 12.7835C12.6336 12.922 12.8221 13 13.0188 13H14.2594C14.4561 13 14.6446 12.922 14.7834 12.7835C14.9219 12.6452 14.9997 12.4581 15 12.2631C15 12.2627 15 12.2623 15 12.2619V11.499C15 11.4987 15 11.4993 15 11.499ZM1 12.2619V8.42857H2.98119C3.17793 8.42857 3.36641 8.50658 3.50522 8.64511C3.644 8.78361 3.72178 8.97124 3.72178 9.16667V12.2619C3.72178 12.4573 3.644 12.645 3.50522 12.7835C3.36641 12.922 3.17793 13 2.98119 13H1.74059C1.54385 13 1.35537 12.922 1.21656 12.7835C1.07778 12.645 1 12.4573 1 12.2619Z" fill="black"/>
</svg>
