<svg width="16" height="16" viewBox="0 0 16 16" fill="none" xmlns="http://www.w3.org/2000/svg">
<path fill-rule="evenodd" clip-rule="evenodd" d="M15 8C15 11.866 11.866 15 8 15C4.13401 15 1 11.866 1 8C1 4.13401 4.13401 1 8 1C11.866 1 15 4.13401 15 8ZM16 8C16 12.4183 12.4183 16 8 16C3.58172 16 0 12.4183 0 8C0 3.58172 3.58172 0 8 0C12.4183 0 16 3.58172 16 8ZM7 5.25C7 4.83579 7.33579 4.5 7.75 4.5C8.16421 4.5 8.5 4.83579 8.5 5.25C8.5 5.66421 8.16421 6 7.75 6C7.33579 6 7 5.66421 7 5.25ZM8 7C8.27614 7 8.5 7.22386 8.5 7.5V11C8.77614 11 9 11.2239 9 11.5C9 11.7761 8.77614 12 8.5 12H7.5C7.22386 12 7 11.7761 7 11.5C7 11.2239 7.22386 11 7.5 11V8C7.22386 8 7 7.77614 7 7.5C7 7.22386 7.22386 7 7.5 7H8Z" fill="black"/>
</svg>
