<svg width="16" height="15" viewBox="0 0 16 15" fill="none" xmlns="http://www.w3.org/2000/svg">
<path fill-rule="evenodd" clip-rule="evenodd" d="M5.0083 4C3.62759 4 2.5083 5.11929 2.5083 6.5C2.5083 7.27634 2.86217 7.97003 3.4174 8.42857C3.29674 8.49866 3.18032 8.57696 3.06901 8.66315C2.4858 9.11479 2.18115 9.73538 2.01591 10.3747C1.9468 10.642 2.10752 10.9148 2.37487 10.9839C2.64223 11.053 2.91498 10.8923 2.98409 10.6249C3.11477 10.1193 3.32957 9.72617 3.68129 9.45379C4.06113 9.15964 4.52793 9.00002 5.00835 9C5.48877 8.99998 5.95558 9.15958 6.33544 9.4537C6.68118 9.72141 6.88247 10.109 7.01592 10.6252C7.08504 10.8925 7.35781 11.0532 7.62516 10.9841C7.89251 10.915 8.05321 10.6422 7.98408 10.3748C7.82153 9.74615 7.5369 9.11926 6.94767 8.66302C6.83637 8.57684 6.71996 8.49856 6.5993 8.42849C7.15448 7.96994 7.5083 7.27629 7.5083 6.5C7.5083 5.11929 6.38901 4 5.0083 4ZM3.5083 6.5C3.5083 5.67157 4.17987 5 5.0083 5C5.83673 5 6.5083 5.67157 6.5083 6.5C6.5083 7.32843 5.83673 8 5.0083 8C4.17987 8 3.5083 7.32843 3.5083 6.5Z" fill="black"/>
<path d="M9.5 6C9.5 5.72386 9.72386 5.5 10 5.5H13.5C13.7761 5.5 14 5.72386 14 6C14 6.27614 13.7761 6.5 13.5 6.5H10C9.72386 6.5 9.5 6.27614 9.5 6Z" fill="black"/>
<path d="M9.5 8.5C9.5 8.22386 9.72386 8 10 8H13.5C13.7761 8 14 8.22386 14 8.5C14 8.77614 13.7761 9 13.5 9H10C9.72386 9 9.5 8.77614 9.5 8.5Z" fill="black"/>
<path fill-rule="evenodd" clip-rule="evenodd" d="M1.125 0.5C0.485378 0.5 0 1.03354 0 1.65V13.35C0 13.9665 0.485378 14.5 1.125 14.5H14.875C15.5146 14.5 16 13.9665 16 13.35V1.65C16 1.03354 15.5146 0.5 14.875 0.5H1.125ZM1 1.65C1 1.54849 1.07427 1.5 1.125 1.5H14.875C14.9257 1.5 15 1.54849 15 1.65V13.35C15 13.4515 14.9257 13.5 14.875 13.5H1.125C1.07427 13.5 1 13.4515 1 13.35V1.65Z" fill="black"/>
</svg>
