<svg width="26" height="29" viewBox="0 0 26 29" fill="none" xmlns="http://www.w3.org/2000/svg">
<path d="M1 6C1 2.68629 3.68629 0 7 0H19C22.3137 0 25 2.68629 25 6V18C25 21.3137 22.3137 24 19 24H7C3.68629 24 1 21.3137 1 18V6Z" fill="url(#paint0_radial_1106_27836)"/>
<g filter="url(#filter0_d_1106_27836)">
<path d="M14.8598 19.2528C14.9038 19.1768 14.9682 19.1147 15.0531 19.0666C15.1379 19.0185 15.2346 18.9945 15.343 18.9945C15.4593 18.9945 15.5638 19.0216 15.6565 19.0759C15.7493 19.1302 15.8223 19.207 15.8758 19.3063C15.9292 19.4041 15.9559 19.5181 15.9559 19.6484C15.9559 19.7772 15.9292 19.892 15.8758 19.9929C15.8223 20.0937 15.7485 20.1721 15.6542 20.2279C15.5615 20.2838 15.4577 20.3117 15.343 20.3117C15.2314 20.3117 15.1332 20.2877 15.0484 20.2396C14.9651 20.1915 14.9022 20.1302 14.8598 20.0557V20.1835C14.8598 20.2427 14.8118 20.2908 14.7525 20.2908C14.6933 20.2908 14.6453 20.2427 14.6453 20.1835V18.6759C14.6453 18.6166 14.6933 18.5686 14.7525 18.5686C14.8118 18.5686 14.8598 18.6166 14.8598 18.6759V19.2528ZM15.7367 19.6484C15.7367 19.5522 15.717 19.4685 15.6777 19.3971C15.6385 19.3257 15.585 19.2714 15.5175 19.2342C15.4515 19.197 15.3784 19.1783 15.2982 19.1783C15.2197 19.1783 15.1466 19.1977 15.079 19.2365C15.013 19.2738 14.9596 19.3288 14.9187 19.4018C14.8794 19.4731 14.8598 19.5561 14.8598 19.6508C14.8598 19.747 14.8794 19.8315 14.9187 19.9044C14.9596 19.9758 15.013 20.0309 15.079 20.0697C15.1466 20.1069 15.2197 20.1255 15.2982 20.1255C15.3784 20.1255 15.4515 20.1069 15.5175 20.0697C15.585 20.0309 15.6385 19.9758 15.6777 19.9044C15.717 19.8315 15.7367 19.7462 15.7367 19.6484Z" fill="white"/>
<path d="M17.1988 19.0154C17.2712 19.0154 17.3204 19.089 17.2927 19.1559L16.5992 20.828C16.5833 20.8663 16.546 20.8912 16.5046 20.8912C16.4317 20.8912 16.3821 20.817 16.4101 20.7496L16.5895 20.3165C16.6001 20.2911 16.6001 20.2625 16.5896 20.2371L16.1475 19.1666C16.1177 19.0946 16.1706 19.0154 16.2486 19.0154C16.2935 19.0154 16.3339 19.043 16.3504 19.0849L16.7286 20.0487L17.1042 19.0803C17.1193 19.0412 17.1569 19.0154 17.1988 19.0154Z" fill="white"/>
<path d="M18.2465 18.5686C18.3648 18.5686 18.4607 18.6645 18.4607 18.7828V20.0964C18.4607 20.2146 18.3648 20.3105 18.2465 20.3105C18.1282 20.3105 18.0323 20.2146 18.0323 20.0964V18.7828C18.0323 18.6645 18.1282 18.5686 18.2465 18.5686Z" fill="white"/>
<path d="M20.7124 18.5686C20.8785 18.5686 21.0132 18.7033 21.0132 18.8694V20.0964C21.0132 20.2146 20.9173 20.3105 20.799 20.3105C20.6807 20.3105 20.5848 20.2146 20.5848 20.0964V19.2659L20.2525 20.1487C20.2158 20.2461 20.1226 20.3105 20.0185 20.3105C19.9146 20.3105 19.8215 20.2462 19.7847 20.149L19.45 19.2634V20.0964C19.45 20.2146 19.3541 20.3105 19.2358 20.3105C19.1175 20.3105 19.0217 20.2146 19.0217 20.0964V18.8714C19.0217 18.7042 19.1572 18.5686 19.3244 18.5686C19.4474 18.5686 19.5581 18.6429 19.6046 18.7567L20.0212 19.7746L20.4336 18.7565C20.4796 18.6429 20.5898 18.5686 20.7124 18.5686Z" fill="white"/>
<path d="M21.7859 18.5686C21.9042 18.5686 22.0001 18.6645 22.0001 18.7828V20.0964C22.0001 20.2146 21.9042 20.3105 21.7859 20.3105C21.6676 20.3105 21.5717 20.2146 21.5717 20.0964V18.7828C21.5717 18.6645 21.6676 18.5686 21.7859 18.5686Z" fill="white"/>
</g>
<g filter="url(#filter1_d_1106_27836)">
<path d="M4.48696 16.3189L4.48749 16.3196C4.93644 16.9354 5.52699 17.2648 6.24452 17.2648C6.83248 17.2648 7.49662 17.0546 8.22739 16.6685C8.31068 16.6254 8.40061 16.5769 8.49714 16.5228L8.48958 16.5359C7.85651 17.6256 7.47289 18.2963 7.34436 18.539C7.24445 18.7061 7.12729 18.9784 7.124 19.2587C7.12227 19.4062 7.15212 19.5709 7.24872 19.7206C7.34743 19.8736 7.49887 19.9846 7.69261 20.0493C8.04984 20.1687 8.35487 20.1194 8.58796 19.984C8.80612 19.8572 8.94294 19.6662 9.00716 19.5148C9.53726 18.3679 10.1151 17.3049 10.7404 16.3253L10.7409 16.3246C11.2921 15.456 11.6908 14.8767 11.9417 14.5733L11.943 14.5716L11.9443 14.57C12.2047 14.2458 12.395 13.9178 12.395 13.6121C12.395 13.3725 12.3199 13.1536 12.1605 12.9755L12.1592 12.974L12.1578 12.9725C12.0155 12.8178 11.8291 12.7411 11.6223 12.7411C11.4489 12.7411 11.2793 12.8173 11.1288 12.9109C10.9718 13.0085 10.8003 13.1478 10.6155 13.3214C10.2117 13.6997 9.52693 14.2129 8.54859 14.8639C7.77997 15.3739 7.1795 15.5957 6.73135 15.5957C6.44566 15.5957 6.22604 15.4888 6.0482 15.2619C5.91007 15.085 5.85112 14.9122 5.85112 14.7373C5.85112 14.1768 6.08183 13.4155 6.5875 12.4368C7.16557 11.3252 7.88923 10.2456 8.75969 9.19811C10.1114 7.57629 11.4745 6.32415 12.8472 5.43434C13.51 5.00955 13.9842 4.83572 14.2942 4.83572C14.4134 4.83572 14.4955 4.86557 14.5573 4.91149C14.6115 4.95284 14.631 4.99366 14.631 5.05864C14.631 5.29091 14.5482 5.59369 14.3502 5.97621C14.1536 6.35606 13.853 6.79587 13.442 7.29679L13.4415 7.29737L13.441 7.29795C12.9242 7.93432 12.2493 8.56356 11.4116 9.18429L11.4107 9.18496L11.4098 9.18564C11.233 9.31875 11.0862 9.452 10.981 9.5862C10.8782 9.71731 10.7929 9.87788 10.7929 10.0595C10.7929 10.2982 10.9081 10.493 11.0852 10.6356L11.0902 10.6396L11.0954 10.6435C11.2472 10.7552 11.4206 10.8263 11.6109 10.8263C11.9523 10.8263 12.3248 10.6628 12.7126 10.4038C13.1076 10.14 13.5546 9.75207 14.0525 9.24817C15.3629 7.92168 16.0632 6.59678 16.0632 5.27743C16.0632 4.81781 15.9256 4.40709 15.6466 4.05926L15.6462 4.05869L15.6457 4.05813C15.2798 3.6065 14.7951 3.375 14.2149 3.375C13.1426 3.375 11.9116 3.94421 10.5362 4.99889C8.85163 6.28835 7.37081 7.82388 6.09381 9.60416L6.09341 9.60471C4.71966 11.529 4 13.2576 4 14.779C4 15.3525 4.16134 15.8694 4.48696 16.3189Z" fill="url(#paint1_radial_1106_27836)" shape-rendering="crispEdges"/>
<path d="M17.6877 12.4884L17.6947 12.4782L17.7008 12.4673C17.7906 12.3086 17.8827 12.1459 17.9779 11.9776C18.6328 10.8199 19.4373 9.39756 20.7004 7.19949C20.9298 6.80184 21.1061 6.46038 21.2259 6.17743C21.3419 5.90354 21.4194 5.65205 21.4194 5.4463C21.4194 5.2531 21.3627 5.07338 21.2494 4.91694C21.098 4.70801 20.8766 4.60655 20.624 4.60655C20.2189 4.60655 19.9255 4.86329 19.73 5.22895L15.9083 11.906C15.688 12.2565 15.5374 12.5881 15.5374 12.8724C15.5374 13.0933 15.6096 13.2964 15.7415 13.475C15.8922 13.6862 16.1045 13.8372 16.3781 13.8372C16.7619 13.8372 17.0422 13.5326 17.2468 13.1778L17.2505 13.1713L17.2539 13.1647C17.3042 13.0664 17.4438 12.8461 17.6877 12.4884Z" fill="url(#paint2_radial_1106_27836)" shape-rendering="crispEdges"/>
<path d="M15.2912 14.2309C15.5535 14.2309 15.7746 14.3462 15.9391 14.5473C16.0663 14.7003 16.1206 14.8859 16.1206 15.0811C16.1206 15.4684 16.0041 15.8607 15.7905 16.2542C15.5531 16.6985 15.2002 16.9835 14.7251 16.9835C14.5029 16.9835 14.2823 16.9251 14.1206 16.7569C13.9608 16.5907 13.9071 16.3676 13.9071 16.1438C13.9071 15.7131 14.0517 15.2897 14.3169 14.8779C14.5599 14.5001 14.8803 14.2309 15.2912 14.2309Z" fill="url(#paint3_radial_1106_27836)" shape-rendering="crispEdges"/>
</g>
<mask id="mask0_1106_27836" style="mask-type:alpha" maskUnits="userSpaceOnUse" x="4" y="3" width="18" height="18">
<path d="M4.48696 16.3189L4.48749 16.3196C4.93644 16.9354 5.52699 17.2648 6.24452 17.2648C6.83248 17.2648 7.49662 17.0546 8.22739 16.6685C8.31068 16.6254 8.40061 16.5769 8.49714 16.5228L8.48958 16.5359C7.85651 17.6256 7.47289 18.2963 7.34436 18.539C7.24445 18.7061 7.12729 18.9784 7.124 19.2587C7.12227 19.4062 7.15212 19.5709 7.24872 19.7206C7.34743 19.8736 7.49887 19.9846 7.69261 20.0493C8.04984 20.1687 8.35487 20.1194 8.58796 19.984C8.80612 19.8572 8.94294 19.6662 9.00716 19.5148C9.53726 18.3679 10.1151 17.3049 10.7404 16.3253L10.7409 16.3246C11.2921 15.456 11.6908 14.8767 11.9417 14.5733L11.943 14.5716L11.9443 14.57C12.2047 14.2458 12.395 13.9178 12.395 13.6121C12.395 13.3725 12.3199 13.1536 12.1605 12.9755L12.1592 12.974L12.1578 12.9725C12.0155 12.8178 11.8291 12.7411 11.6223 12.7411C11.4489 12.7411 11.2793 12.8173 11.1288 12.9109C10.9718 13.0085 10.8003 13.1478 10.6155 13.3214C10.2117 13.6997 9.52693 14.2129 8.54859 14.8639C7.77997 15.3739 7.1795 15.5957 6.73135 15.5957C6.44566 15.5957 6.22604 15.4888 6.0482 15.2619C5.91007 15.085 5.85112 14.9122 5.85112 14.7373C5.85112 14.1768 6.08183 13.4155 6.5875 12.4368C7.16557 11.3252 7.88923 10.2456 8.75969 9.19811C10.1114 7.57629 11.4745 6.32415 12.8472 5.43434C13.51 5.00955 13.9842 4.83572 14.2942 4.83572C14.4134 4.83572 14.4955 4.86557 14.5573 4.91149C14.6115 4.95284 14.631 4.99366 14.631 5.05864C14.631 5.29091 14.5482 5.59369 14.3502 5.97621C14.1536 6.35606 13.853 6.79587 13.442 7.29679L13.4415 7.29737L13.441 7.29795C12.9242 7.93432 12.2493 8.56356 11.4116 9.18429L11.4107 9.18496L11.4098 9.18564C11.233 9.31875 11.0862 9.452 10.981 9.5862C10.8782 9.71731 10.7929 9.87788 10.7929 10.0595C10.7929 10.2982 10.9081 10.493 11.0852 10.6356L11.0902 10.6396L11.0954 10.6435C11.2472 10.7552 11.4206 10.8263 11.6109 10.8263C11.9523 10.8263 12.3248 10.6628 12.7126 10.4038C13.1076 10.14 13.5546 9.75207 14.0525 9.24817C15.3629 7.92168 16.0632 6.59678 16.0632 5.27743C16.0632 4.81781 15.9256 4.40709 15.6466 4.05926L15.6462 4.05869L15.6457 4.05813C15.2798 3.6065 14.7951 3.375 14.2149 3.375C13.1426 3.375 11.9116 3.94421 10.5362 4.99889C8.85163 6.28835 7.37081 7.82388 6.09381 9.60416L6.09341 9.60471C4.71966 11.529 4 13.2576 4 14.779C4 15.3525 4.16134 15.8694 4.48696 16.3189Z" fill="white"/>
<path d="M17.6877 12.4884L17.6947 12.4782L17.7008 12.4673C17.7906 12.3086 17.8827 12.1459 17.9779 11.9776C18.6328 10.8199 19.4373 9.39756 20.7004 7.19949C20.9298 6.80184 21.1061 6.46038 21.2259 6.17743C21.3419 5.90354 21.4194 5.65205 21.4194 5.4463C21.4194 5.2531 21.3627 5.07338 21.2494 4.91694C21.098 4.70801 20.8766 4.60655 20.624 4.60655C20.2189 4.60655 19.9255 4.86329 19.73 5.22895L15.9083 11.906C15.688 12.2565 15.5374 12.5881 15.5374 12.8724C15.5374 13.0933 15.6096 13.2964 15.7415 13.475C15.8922 13.6862 16.1045 13.8372 16.3781 13.8372C16.7619 13.8372 17.0422 13.5326 17.2468 13.1778L17.2505 13.1713L17.2539 13.1647C17.3042 13.0664 17.4438 12.8461 17.6877 12.4884Z" fill="white"/>
<path d="M15.2912 14.2309C15.5535 14.2309 15.7746 14.3462 15.9391 14.5473C16.0663 14.7003 16.1206 14.8859 16.1206 15.0811C16.1206 15.4684 16.0041 15.8607 15.7905 16.2542C15.5531 16.6985 15.2002 16.9835 14.7251 16.9835C14.5029 16.9835 14.2823 16.9251 14.1206 16.7569C13.9608 16.5907 13.9071 16.3676 13.9071 16.1438C13.9071 15.7131 14.0517 15.2897 14.3169 14.8779C14.5599 14.5001 14.8803 14.2309 15.2912 14.2309Z" fill="white"/>
</mask>
<g mask="url(#mask0_1106_27836)">
<path d="M11.8387 14.7944C12.0991 14.4701 12.395 13.9178 12.395 13.6121C12.395 13.3725 12.3199 13.1536 12.1605 12.9755L12.1592 12.974L12.1578 12.9725C12.0156 12.8178 11.8292 12.7411 11.6223 12.7411C11.449 12.7411 11.2793 12.8173 11.1288 12.9109C10.9718 13.0085 10.6686 13.2175 10.4839 13.3911M14.2149 3.375C14.7951 3.375 15.2799 3.6065 15.6457 4.05813L15.6462 4.05869L15.6466 4.05926C15.9256 4.40709 16.0632 4.81781 16.0632 5.27743C16.0646 5.56264 15.9833 6.32661 15.6466 7.10081M18.7581 10.5847C18.9875 10.187 21.106 6.36762 21.2258 6.08468C21.3418 5.81079 21.371 5.66139 21.371 5.45564C21.371 5.26244 21.3392 5.07982 21.2258 4.92339C21.0745 4.71445 20.8978 4.63306 20.6452 4.63306C20.24 4.63306 19.9213 4.89643 19.7258 5.2621M14.742 14.3589C15.4194 14.0685 15.7746 14.3462 15.9391 14.5473C16.0663 14.7003 16.1452 14.9879 16.1452 15.2782" stroke="white" stroke-linecap="round" stroke-linejoin="round"/>
</g>
<defs>
<filter id="filter0_d_1106_27836" x="10.6453" y="18.5686" width="15.3549" height="10.3225" filterUnits="userSpaceOnUse" color-interpolation-filters="sRGB">
<feFlood flood-opacity="0" result="BackgroundImageFix"/>
<feColorMatrix in="SourceAlpha" type="matrix" values="0 0 0 0 0 0 0 0 0 0 0 0 0 0 0 0 0 0 127 0" result="hardAlpha"/>
<feOffset dy="4"/>
<feGaussianBlur stdDeviation="2"/>
<feComposite in2="hardAlpha" operator="out"/>
<feColorMatrix type="matrix" values="0 0 0 0 0.936833 0 0 0 0 0.39347 0 0 0 0 0 0 0 0 1 0"/>
<feBlend mode="normal" in2="BackgroundImageFix" result="effect1_dropShadow_1106_27836"/>
<feBlend mode="normal" in="SourceGraphic" in2="effect1_dropShadow_1106_27836" result="shape"/>
</filter>
<filter id="filter1_d_1106_27836" x="0" y="3.375" width="25.4193" height="24.7419" filterUnits="userSpaceOnUse" color-interpolation-filters="sRGB">
<feFlood flood-opacity="0" result="BackgroundImageFix"/>
<feColorMatrix in="SourceAlpha" type="matrix" values="0 0 0 0 0 0 0 0 0 0 0 0 0 0 0 0 0 0 127 0" result="hardAlpha"/>
<feOffset dy="4"/>
<feGaussianBlur stdDeviation="2"/>
<feComposite in2="hardAlpha" operator="out"/>
<feColorMatrix type="matrix" values="0 0 0 0 0.936833 0 0 0 0 0.39347 0 0 0 0 0 0 0 0 1 0"/>
<feBlend mode="normal" in2="BackgroundImageFix" result="effect1_dropShadow_1106_27836"/>
<feBlend mode="normal" in="SourceGraphic" in2="effect1_dropShadow_1106_27836" result="shape"/>
</filter>
<radialGradient id="paint0_radial_1106_27836" cx="0" cy="0" r="1" gradientUnits="userSpaceOnUse" gradientTransform="translate(23.125 27.6563) rotate(-119.435) scale(22.6057 22.5729)">
<stop stop-color="#FFA030"/>
<stop offset="1" stop-color="#FF6B00"/>
</radialGradient>
<radialGradient id="paint1_radial_1106_27836" cx="0" cy="0" r="1" gradientUnits="userSpaceOnUse" gradientTransform="translate(6.8125 10.6875) rotate(42.7543) scale(13.5338 18.6585)">
<stop stop-color="white"/>
<stop offset="0.828959" stop-color="white" stop-opacity="0.85"/>
</radialGradient>
<radialGradient id="paint2_radial_1106_27836" cx="0" cy="0" r="1" gradientUnits="userSpaceOnUse" gradientTransform="translate(6.8125 10.6875) rotate(42.7543) scale(13.5338 18.6585)">
<stop stop-color="white"/>
<stop offset="0.828959" stop-color="white" stop-opacity="0.85"/>
</radialGradient>
<radialGradient id="paint3_radial_1106_27836" cx="0" cy="0" r="1" gradientUnits="userSpaceOnUse" gradientTransform="translate(6.8125 10.6875) rotate(42.7543) scale(13.5338 18.6585)">
<stop stop-color="white"/>
<stop offset="0.828959" stop-color="white" stop-opacity="0.85"/>
</radialGradient>
</defs>
</svg>
