<svg width="16" height="11" viewBox="0 0 16 11" fill="none" xmlns="http://www.w3.org/2000/svg">
<path fill-rule="evenodd" clip-rule="evenodd" d="M5.5 5.5C5.5 4.11929 6.61929 3 8 3C9.38071 3 10.5 4.11929 10.5 5.5C10.5 6.88071 9.38071 8 8 8C6.61929 8 5.5 6.88071 5.5 5.5ZM8 4C7.17157 4 6.5 4.67157 6.5 5.5C6.5 6.32843 7.17157 7 8 7C8.82843 7 9.5 6.32843 9.5 5.5C9.5 4.67157 8.82843 4 8 4Z" fill="black"/>
<path fill-rule="evenodd" clip-rule="evenodd" d="M4.78567 0.5H11.2143C11.2143 0.5 11.2144 0.5 11.2143 0.5H14.9643C15.559 0.5 16 0.998966 16 1.5625V4.93534C16 4.93687 16 4.9384 16 4.93993V6.05367C16.0001 6.05946 16.0001 6.06525 16 6.07103V9.4375C16 10.001 15.559 10.5 14.9643 10.5H1.03571C0.440997 10.5 0 10.001 0 9.4375V4.93772C0 4.93777 0 4.93766 0 4.93772V1.5625C0 0.998966 0.440997 0.5 1.03571 0.5H4.78567C4.78572 0.5 4.78561 0.5 4.78567 0.5ZM1 5.15712V5.84287L4.98055 9.5H11.0195L15 5.84294V5.15711L11.0195 1.5H4.98054L1 5.15712ZM3.50247 1.5L1 3.79914V1.5625C1 1.5373 1.00937 1.51967 1.01898 1.50958C1.0281 1.5 1.03389 1.5 1.03571 1.5H3.50247ZM12.4975 1.5L15 3.79914V1.5625C15 1.5373 14.9906 1.51967 14.981 1.50958C14.9719 1.5 14.9662 1.5 14.9643 1.5H12.4975ZM15 7.20091L12.4976 9.5H14.9643C14.9661 9.5 14.9719 9.5 14.981 9.49042C14.9906 9.48033 15 9.4627 15 9.4375V7.20091ZM3.50248 9.5L1 7.20085V9.4375C1 9.4627 1.00937 9.48033 1.01898 9.49042C1.0281 9.5 1.03385 9.5 1.03567 9.5H3.50248Z" fill="black"/>
</svg>
