<svg width="312" height="194" viewBox="0 0 312 194" fill="none" xmlns="http://www.w3.org/2000/svg">
<rect x="0.5" y="0.5" width="311" height="193" fill="#E7E7E7" stroke="#E7E7E7"/>
<rect width="312" height="27" fill="#AAAAAA"/>
<rect opacity="0.2" x="80" y="11" width="102" height="14" rx="7" fill="white"/>
<rect opacity="0.2" x="80" y="29" width="102" height="6" rx="3" fill="#777777"/>
<g opacity="0.2">
<rect x="214" y="18" width="70" height="6" rx="3" fill="white"/>
<rect x="195" y="50" width="106" height="10" rx="5" fill="#777777"/>
<rect x="247" y="39" width="24" height="6" rx="3" fill="#777777"/>
<rect opacity="0.5" x="220" y="177" width="60" height="10" rx="5" fill="#777777"/>
<rect x="225" y="27" width="20" height="20" rx="10" fill="#777777"/>
<path fill-rule="evenodd" clip-rule="evenodd" d="M267.513 176.857C267.995 177.027 268.16 177.621 267.821 178.003C263.459 182.908 257.092 186 250 186C242.908 186 236.541 182.908 232.179 178.003C231.84 177.621 232.005 177.027 232.487 176.857C235.359 175.843 238.621 174.794 239.962 174.537C242.146 174.117 242.771 173.277 243.083 171.389C243.302 170.063 243.216 168.695 243.122 167.977C243.1 167.808 243.011 167.656 242.896 167.529C242.556 167.153 241.918 166.317 241.106 164.883C240.657 164.09 240.342 163.052 240.133 161.764C240.129 161.739 240.102 161.726 240.08 161.736C238.831 162.26 238.103 157.329 238.519 156.384C238.602 156.197 238.716 156.066 238.846 155.978C239.244 155.709 239.747 155.399 239.742 154.92C239.71 152.302 239.68 148.269 239.754 147.675C239.827 147.088 240.117 146.031 240.374 145.4C240.42 145.287 240.338 145.157 240.216 145.157C240.096 145.157 240.02 145.037 240.081 144.935C240.339 144.508 240.947 143.711 242.042 142.744C243.374 141.569 244.47 141.275 244.851 141.275C244.57 141.275 244.589 140.952 244.866 140.91C245.536 140.809 246.313 140.702 246.922 140.622C247.076 140.602 247.418 140.502 247.265 140.469C247.099 140.433 246.771 140.128 246.941 140.112C249.906 139.839 252.413 140.031 254.837 141.065C257.185 142.067 258.357 143.781 258.625 144.902C258.692 145.181 258.858 145.437 259.093 145.604C260.302 146.46 260.558 148.216 260.558 150.403C260.558 151.523 260.488 152.837 260.429 153.942C260.409 154.327 260.39 154.686 260.375 155.003C260.356 155.443 260.788 155.745 261.128 156.026C261.231 156.112 261.322 156.229 261.39 156.384C261.713 157.116 261.348 160.246 260.585 161.37C260.328 161.749 259.805 162.162 259.706 162.609C259.507 163.514 259.24 164.271 258.894 164.883C258.082 166.317 257.444 167.153 257.104 167.529C256.989 167.656 256.9 167.808 256.878 167.977C256.784 168.695 256.698 170.063 256.917 171.389C257.229 173.277 257.854 174.117 260.038 174.537C261.379 174.794 264.641 175.843 267.513 176.857ZM239.785 155.864C239.783 155.864 239.783 155.86 239.786 155.86C239.787 155.86 239.788 155.861 239.788 155.862C239.788 155.864 239.787 155.865 239.785 155.864Z" fill="url(#paint0_linear_814_33932)"/>
</g>
<g opacity="0.2">
<rect x="95" y="75" width="8" height="8" rx="4" fill="#777777"/>
<rect x="95" y="87" width="8" height="8" rx="4" fill="#777777"/>
<rect x="95" y="99" width="8" height="8" rx="4" fill="#777777"/>
<rect x="95" y="111" width="8" height="8" rx="4" fill="#777777"/>
<rect x="95" y="123" width="8" height="8" rx="4" fill="#777777"/>
<rect x="95" y="135" width="8" height="8" rx="4" fill="#777777"/>
<rect x="95" y="147" width="8" height="8" rx="4" fill="#777777"/>
<rect x="95" y="159" width="8" height="8" rx="4" fill="#777777"/>
</g>
<g opacity="0.2">
<rect x="112" y="75" width="125" height="8" rx="4" fill="#777777"/>
<rect x="112" y="87" width="136" height="8" rx="4" fill="#777777"/>
<rect x="112" y="99" width="47" height="8" rx="4" fill="#777777"/>
<rect x="112" y="111" width="96" height="8" rx="4" fill="#777777"/>
<rect x="112" y="123" width="148" height="8" rx="4" fill="#777777"/>
<rect x="112" y="135" width="84" height="8" rx="4" fill="#777777"/>
<rect x="112" y="147" width="44" height="8" rx="4" fill="#777777"/>
<rect x="112" y="159" width="63" height="8" rx="4" fill="#777777"/>
</g>
<path opacity="0.2" fill-rule="evenodd" clip-rule="evenodd" d="M103.076 169.353C104.372 169.812 104.815 171.414 103.903 172.443C92.1782 185.666 75.0624 194 56.0002 194C36.938 194 19.8222 185.666 8.09762 172.443C7.18522 171.414 7.62801 169.812 8.92443 169.353C16.6455 166.619 25.4131 163.793 29.0177 163.099C34.8895 161.967 36.5672 159.704 37.406 154.613C37.9948 151.04 37.7657 147.351 37.5119 145.417C37.4519 144.961 37.2143 144.55 36.9056 144.208C35.9903 143.196 34.276 140.941 32.0934 137.077C30.8853 134.938 30.0396 132.139 29.4782 128.667C29.4676 128.602 29.3949 128.566 29.3336 128.591C25.9783 130.006 24.021 116.712 25.1395 114.166C25.3613 113.661 25.6679 113.308 26.0192 113.07C27.0877 112.345 28.441 111.509 28.4253 110.218C28.3398 103.163 28.2605 92.2917 28.4584 90.6901C28.654 89.1074 29.4338 86.2562 30.1251 84.5563C30.2494 84.2507 30.0292 83.9017 29.6993 83.9017C29.378 83.9017 29.1728 83.5775 29.3385 83.3023C30.0319 82.1508 31.6644 80.0034 34.6099 77.3963C38.1889 74.2284 41.1342 73.4364 42.1594 73.4364C41.4046 73.4364 41.4543 72.5652 42.2005 72.4521C44.0002 72.1795 46.0898 71.893 47.7252 71.6772C48.1406 71.6223 49.0589 71.3524 48.6494 71.2642C48.2018 71.1677 47.3203 70.3451 47.7762 70.303C55.747 69.5658 62.4868 70.0824 69.0021 72.8708C75.3142 75.5722 78.4645 80.1926 79.185 83.2145C79.3645 83.9673 79.8106 84.657 80.4414 85.1052C83.6919 87.4148 84.3808 92.1487 84.3808 98.0441C84.3808 101.061 84.1928 104.605 84.0348 107.583C83.9797 108.621 83.9283 109.59 83.8898 110.444C83.8363 111.629 84.9996 112.443 85.9122 113.201C86.1905 113.432 86.4333 113.747 86.6176 114.166C87.4848 116.14 86.503 124.575 84.4541 127.606C83.7632 128.628 82.3562 129.74 82.0913 130.945C81.5549 133.385 80.8388 135.427 79.9071 137.077C77.7244 140.941 76.0101 143.196 75.0949 144.208C74.7861 144.55 74.5485 144.961 74.4886 145.417C74.2347 147.351 74.0057 151.04 74.5944 154.613C75.4332 159.704 77.1109 161.967 82.9827 163.099C86.5873 163.793 95.3549 166.619 103.076 169.353ZM28.5431 112.764C28.536 112.763 28.5372 112.752 28.5445 112.752C28.5479 112.752 28.5507 112.755 28.5507 112.759C28.5506 112.763 28.5469 112.765 28.5431 112.764Z" fill="url(#paint1_linear_814_33932)"/>
<circle opacity="0.4" cx="56" cy="30" r="19" fill="white"/>
<path d="M73 97C73 88.1634 80.1634 81 89 81H223C231.837 81 239 88.1634 239 97V97C239 105.837 231.837 113 223 113H89C80.1634 113 73 105.837 73 97V97Z" fill="white"/>
<path d="M104.327 92.576V94.22H102.095V101H100.043V94.22H97.8114V92.576H104.327ZM104.949 97.64C104.949 96.952 105.077 96.348 105.333 95.828C105.597 95.308 105.953 94.908 106.401 94.628C106.849 94.348 107.349 94.208 107.901 94.208C108.373 94.208 108.785 94.304 109.137 94.496C109.497 94.688 109.773 94.94 109.965 95.252V94.304H112.017V101H109.965V100.052C109.765 100.364 109.485 100.616 109.125 100.808C108.773 101 108.361 101.096 107.889 101.096C107.345 101.096 106.849 100.956 106.401 100.676C105.953 100.388 105.597 99.984 105.333 99.464C105.077 98.936 104.949 98.328 104.949 97.64ZM109.965 97.652C109.965 97.14 109.821 96.736 109.533 96.44C109.253 96.144 108.909 95.996 108.501 95.996C108.093 95.996 107.745 96.144 107.457 96.44C107.177 96.728 107.037 97.128 107.037 97.64C107.037 98.152 107.177 98.56 107.457 98.864C107.745 99.16 108.093 99.308 108.501 99.308C108.909 99.308 109.253 99.16 109.533 98.864C109.821 98.568 109.965 98.164 109.965 97.652ZM117.594 101L115.554 98.192V101H113.502V92.12H115.554V97.028L117.582 94.304H120.114L117.33 97.664L120.138 101H117.594ZM127.232 97.544C127.232 97.736 127.22 97.936 127.196 98.144H122.552C122.584 98.56 122.716 98.88 122.948 99.104C123.188 99.32 123.48 99.428 123.824 99.428C124.336 99.428 124.692 99.212 124.892 98.78H127.076C126.964 99.22 126.76 99.616 126.464 99.968C126.176 100.32 125.812 100.596 125.372 100.796C124.932 100.996 124.44 101.096 123.896 101.096C123.24 101.096 122.656 100.956 122.144 100.676C121.632 100.396 121.232 99.996 120.944 99.476C120.656 98.956 120.512 98.348 120.512 97.652C120.512 96.956 120.652 96.348 120.932 95.828C121.22 95.308 121.62 94.908 122.132 94.628C122.644 94.348 123.232 94.208 123.896 94.208C124.544 94.208 125.12 94.344 125.624 94.616C126.128 94.888 126.52 95.276 126.8 95.78C127.088 96.284 127.232 96.872 127.232 97.544ZM125.132 97.004C125.132 96.652 125.012 96.372 124.772 96.164C124.532 95.956 124.232 95.852 123.872 95.852C123.528 95.852 123.236 95.952 122.996 96.152C122.764 96.352 122.62 96.636 122.564 97.004H125.132ZM132.909 99.416H135.597V101H130.857V92.576H132.909V99.416ZM137.608 93.608C137.248 93.608 136.952 93.504 136.72 93.296C136.496 93.08 136.384 92.816 136.384 92.504C136.384 92.184 136.496 91.92 136.72 91.712C136.952 91.496 137.248 91.388 137.608 91.388C137.96 91.388 138.248 91.496 138.472 91.712C138.704 91.92 138.82 92.184 138.82 92.504C138.82 92.816 138.704 93.08 138.472 93.296C138.248 93.504 137.96 93.608 137.608 93.608ZM138.628 94.304V101H136.576V94.304H138.628ZM139.707 97.652C139.707 96.956 139.847 96.348 140.127 95.828C140.415 95.308 140.811 94.908 141.315 94.628C141.827 94.348 142.411 94.208 143.067 94.208C143.907 94.208 144.607 94.428 145.167 94.868C145.735 95.308 146.107 95.928 146.283 96.728H144.099C143.915 96.216 143.559 95.96 143.031 95.96C142.655 95.96 142.355 96.108 142.131 96.404C141.907 96.692 141.795 97.108 141.795 97.652C141.795 98.196 141.907 98.616 142.131 98.912C142.355 99.2 142.655 99.344 143.031 99.344C143.559 99.344 143.915 99.088 144.099 98.576H146.283C146.107 99.36 145.735 99.976 145.167 100.424C144.599 100.872 143.899 101.096 143.067 101.096C142.411 101.096 141.827 100.956 141.315 100.676C140.811 100.396 140.415 99.996 140.127 99.476C139.847 98.956 139.707 98.348 139.707 97.652ZM153.693 97.544C153.693 97.736 153.681 97.936 153.657 98.144H149.013C149.045 98.56 149.177 98.88 149.409 99.104C149.649 99.32 149.941 99.428 150.285 99.428C150.797 99.428 151.153 99.212 151.353 98.78H153.537C153.425 99.22 153.221 99.616 152.925 99.968C152.637 100.32 152.273 100.596 151.833 100.796C151.393 100.996 150.901 101.096 150.357 101.096C149.701 101.096 149.117 100.956 148.605 100.676C148.093 100.396 147.693 99.996 147.405 99.476C147.117 98.956 146.973 98.348 146.973 97.652C146.973 96.956 147.113 96.348 147.393 95.828C147.681 95.308 148.081 94.908 148.593 94.628C149.105 94.348 149.693 94.208 150.357 94.208C151.005 94.208 151.581 94.344 152.085 94.616C152.589 94.888 152.981 95.276 153.261 95.78C153.549 96.284 153.693 96.872 153.693 97.544ZM151.593 97.004C151.593 96.652 151.473 96.372 151.233 96.164C150.993 95.956 150.693 95.852 150.333 95.852C149.989 95.852 149.697 95.952 149.457 96.152C149.225 96.352 149.081 96.636 149.025 97.004H151.593ZM158.855 94.232C159.639 94.232 160.263 94.488 160.727 95C161.199 95.504 161.435 96.2 161.435 97.088V101H159.395V97.364C159.395 96.916 159.279 96.568 159.047 96.32C158.815 96.072 158.503 95.948 158.111 95.948C157.719 95.948 157.407 96.072 157.175 96.32C156.943 96.568 156.827 96.916 156.827 97.364V101H154.775V94.304H156.827V95.192C157.035 94.896 157.315 94.664 157.667 94.496C158.019 94.32 158.415 94.232 158.855 94.232ZM165.585 101.096C165.001 101.096 164.481 100.996 164.025 100.796C163.569 100.596 163.209 100.324 162.945 99.98C162.681 99.628 162.533 99.236 162.501 98.804H164.529C164.553 99.036 164.661 99.224 164.853 99.368C165.045 99.512 165.281 99.584 165.561 99.584C165.817 99.584 166.013 99.536 166.149 99.44C166.293 99.336 166.365 99.204 166.365 99.044C166.365 98.852 166.265 98.712 166.065 98.624C165.865 98.528 165.541 98.424 165.093 98.312C164.613 98.2 164.213 98.084 163.893 97.964C163.573 97.836 163.297 97.64 163.065 97.376C162.833 97.104 162.717 96.74 162.717 96.284C162.717 95.9 162.821 95.552 163.029 95.24C163.245 94.92 163.557 94.668 163.965 94.484C164.381 94.3 164.873 94.208 165.441 94.208C166.281 94.208 166.941 94.416 167.421 94.832C167.909 95.248 168.189 95.8 168.261 96.488H166.365C166.333 96.256 166.229 96.072 166.053 95.936C165.885 95.8 165.661 95.732 165.381 95.732C165.141 95.732 164.957 95.78 164.829 95.876C164.701 95.964 164.637 96.088 164.637 96.248C164.637 96.44 164.737 96.584 164.937 96.68C165.145 96.776 165.465 96.872 165.897 96.968C166.393 97.096 166.797 97.224 167.109 97.352C167.421 97.472 167.693 97.672 167.925 97.952C168.165 98.224 168.289 98.592 168.297 99.056C168.297 99.448 168.185 99.8 167.961 100.112C167.745 100.416 167.429 100.656 167.013 100.832C166.605 101.008 166.129 101.096 165.585 101.096ZM175.865 97.544C175.865 97.736 175.853 97.936 175.829 98.144H171.185C171.217 98.56 171.349 98.88 171.581 99.104C171.821 99.32 172.113 99.428 172.457 99.428C172.969 99.428 173.325 99.212 173.525 98.78H175.709C175.597 99.22 175.393 99.616 175.097 99.968C174.809 100.32 174.445 100.596 174.005 100.796C173.565 100.996 173.073 101.096 172.529 101.096C171.873 101.096 171.289 100.956 170.777 100.676C170.265 100.396 169.865 99.996 169.577 99.476C169.289 98.956 169.145 98.348 169.145 97.652C169.145 96.956 169.285 96.348 169.565 95.828C169.853 95.308 170.253 94.908 170.765 94.628C171.277 94.348 171.865 94.208 172.529 94.208C173.177 94.208 173.753 94.344 174.257 94.616C174.761 94.888 175.153 95.276 175.433 95.78C175.721 96.284 175.865 96.872 175.865 97.544ZM173.765 97.004C173.765 96.652 173.645 96.372 173.405 96.164C173.165 95.956 172.865 95.852 172.505 95.852C172.161 95.852 171.869 95.952 171.629 96.152C171.397 96.352 171.253 96.636 171.197 97.004H173.765ZM185.91 95.288C185.91 95.776 185.798 96.224 185.574 96.632C185.35 97.032 185.006 97.356 184.542 97.604C184.078 97.852 183.502 97.976 182.814 97.976H181.542V101H179.49V92.576H182.814C183.486 92.576 184.054 92.692 184.518 92.924C184.982 93.156 185.33 93.476 185.562 93.884C185.794 94.292 185.91 94.76 185.91 95.288ZM182.658 96.344C183.05 96.344 183.342 96.252 183.534 96.068C183.726 95.884 183.822 95.624 183.822 95.288C183.822 94.952 183.726 94.692 183.534 94.508C183.342 94.324 183.05 94.232 182.658 94.232H181.542V96.344H182.658ZM191.094 94.232C191.862 94.232 192.478 94.488 192.942 95C193.406 95.504 193.638 96.2 193.638 97.088V101H191.598V97.364C191.598 96.916 191.482 96.568 191.25 96.32C191.018 96.072 190.706 95.948 190.314 95.948C189.922 95.948 189.61 96.072 189.378 96.32C189.146 96.568 189.03 96.916 189.03 97.364V101H186.978V92.12H189.03V95.204C189.238 94.908 189.522 94.672 189.882 94.496C190.242 94.32 190.646 94.232 191.094 94.232ZM198.112 101.096C197.456 101.096 196.864 100.956 196.336 100.676C195.816 100.396 195.404 99.996 195.1 99.476C194.804 98.956 194.656 98.348 194.656 97.652C194.656 96.964 194.808 96.36 195.112 95.84C195.416 95.312 195.832 94.908 196.36 94.628C196.888 94.348 197.48 94.208 198.136 94.208C198.792 94.208 199.384 94.348 199.912 94.628C200.44 94.908 200.856 95.312 201.16 95.84C201.464 96.36 201.616 96.964 201.616 97.652C201.616 98.34 201.46 98.948 201.148 99.476C200.844 99.996 200.424 100.396 199.888 100.676C199.36 100.956 198.768 101.096 198.112 101.096ZM198.112 99.32C198.504 99.32 198.836 99.176 199.108 98.888C199.388 98.6 199.528 98.188 199.528 97.652C199.528 97.116 199.392 96.704 199.12 96.416C198.856 96.128 198.528 95.984 198.136 95.984C197.736 95.984 197.404 96.128 197.14 96.416C196.876 96.696 196.744 97.108 196.744 97.652C196.744 98.188 196.872 98.6 197.128 98.888C197.392 99.176 197.72 99.32 198.112 99.32ZM206.437 99.26V101H205.393C204.649 101 204.069 100.82 203.653 100.46C203.237 100.092 203.029 99.496 203.029 98.672V96.008H202.213V94.304H203.029V92.672H205.081V94.304H206.425V96.008H205.081V98.696C205.081 98.896 205.129 99.04 205.225 99.128C205.321 99.216 205.481 99.26 205.705 99.26H206.437ZM210.628 101.096C209.972 101.096 209.38 100.956 208.852 100.676C208.332 100.396 207.92 99.996 207.616 99.476C207.32 98.956 207.172 98.348 207.172 97.652C207.172 96.964 207.324 96.36 207.628 95.84C207.932 95.312 208.348 94.908 208.876 94.628C209.404 94.348 209.996 94.208 210.652 94.208C211.308 94.208 211.9 94.348 212.428 94.628C212.956 94.908 213.372 95.312 213.676 95.84C213.98 96.36 214.132 96.964 214.132 97.652C214.132 98.34 213.976 98.948 213.664 99.476C213.36 99.996 212.94 100.396 212.404 100.676C211.876 100.956 211.284 101.096 210.628 101.096ZM210.628 99.32C211.02 99.32 211.352 99.176 211.624 98.888C211.904 98.6 212.044 98.188 212.044 97.652C212.044 97.116 211.908 96.704 211.636 96.416C211.372 96.128 211.044 95.984 210.652 95.984C210.252 95.984 209.92 96.128 209.656 96.416C209.392 96.696 209.26 97.108 209.26 97.652C209.26 98.188 209.388 98.6 209.644 98.888C209.908 99.176 210.236 99.32 210.628 99.32Z" fill="black"/>
<defs>
<linearGradient id="paint0_linear_814_33932" x1="250" y1="140" x2="250" y2="186" gradientUnits="userSpaceOnUse">
<stop stop-color="#777777"/>
<stop offset="0.822739" stop-color="#777777" stop-opacity="0"/>
</linearGradient>
<linearGradient id="paint1_linear_814_33932" x1="56.0002" y1="70" x2="56.0002" y2="194" gradientUnits="userSpaceOnUse">
<stop stop-color="#777777"/>
<stop offset="0.822739" stop-color="#777777" stop-opacity="0"/>
</linearGradient>
</defs>
</svg>
