<svg width="24" height="24" viewBox="0 0 24 24" fill="none" xmlns="http://www.w3.org/2000/svg">
<path d="M12 5C8.13438 5 5 8.13438 5 12C5 15.8656 8.13438 19 12 19C15.8656 19 19 15.8656 19 12C19 8.13438 15.8656 5 12 5Z" fill="#25B900"/>
<path fill-rule="evenodd" clip-rule="evenodd" d="M15.4678 9.64636C15.6631 9.84157 15.6632 10.1582 15.468 10.3535L11.6883 14.1352C11.5944 14.229 11.4672 14.2817 11.3345 14.2817C11.2018 14.2817 11.0745 14.2289 10.9808 14.135L9.14617 12.2975C8.95106 12.102 8.95131 11.7855 9.14673 11.5903C9.34214 11.3952 9.65873 11.3955 9.85383 11.5909L11.3348 13.0742L14.7607 9.64654C14.9559 9.45123 15.2725 9.45114 15.4678 9.64636Z" fill="white"/>
</svg>
