<svg width="24" height="24" viewBox="0 0 24 24" fill="none" xmlns="http://www.w3.org/2000/svg">
<path fill-rule="evenodd" clip-rule="evenodd" d="M6 7C6.55228 7 7 6.55228 7 6C7 5.44772 6.55228 5 6 5C5.44772 5 5 5.44772 5 6C5 6.55228 5.44772 7 6 7ZM7.72305 7.01606C7.89902 6.71829 8 6.37094 8 6C8 4.89543 7.10457 4 6 4C4.89543 4 4 4.89543 4 6C4 7.10457 4.89543 8 6 8C6.37087 8 6.71817 7.89905 7.01591 7.72314L8.83996 9.54719C9.04526 9.28307 9.28295 9.04539 9.54706 8.84008L7.72305 7.01606ZM18 7C18.5523 7 19 6.55228 19 6C19 5.44772 18.5523 5 18 5C17.4477 5 17 5.44772 17 6C17 6.55228 17.4477 7 18 7ZM18 8C19.1046 8 20 7.10457 20 6C20 4.89543 19.1046 4 18 4C16.8954 4 16 4.89543 16 6C16 7.10457 16.8954 8 18 8ZM7 18C7 18.5523 6.55228 19 6 19C5.44772 19 5 18.5523 5 18C5 17.4477 5.44772 17 6 17C6.55228 17 7 17.4477 7 18ZM8 18C8 19.1046 7.10457 20 6 20C4.89543 20 4 19.1046 4 18C4 16.8954 4.89543 16 6 16C6.37088 16 6.71817 16.1009 7.01592 16.2769L8.83996 14.4528C9.04526 14.7169 9.28295 14.9546 9.54706 15.1599L7.72305 16.9839C7.89902 17.2817 8 17.6291 8 18ZM18 19C18.5523 19 19 18.5523 19 18C19 17.4477 18.5523 17 18 17C17.4477 17 17 17.4477 17 18C17 18.5523 17.4477 19 18 19ZM18 20C19.1046 20 20 19.1046 20 18C20 16.8954 19.1046 16 18 16C16.8954 16 16 16.8954 16 18C16 19.1046 16.8954 20 18 20ZM15 12C15 13.6569 13.6569 15 12 15C10.3431 15 9 13.6569 9 12C9 10.3431 10.3431 9 12 9C13.6569 9 15 10.3431 15 12ZM14.4528 15.16C13.7754 15.6865 12.9243 16 12 16C9.79086 16 8 14.2091 8 12C8 9.79086 9.79086 8 12 8C12.9243 8 13.7754 8.31352 14.4528 8.84002L16.2768 7.01599C16.4489 7.30721 16.6927 7.55102 16.9839 7.7231L15.1599 9.54712C15.6864 10.2245 16 11.0756 16 12C16 12.9244 15.6864 13.7755 15.1599 14.4529L16.9839 16.2769C16.6927 16.449 16.4489 16.6928 16.2768 16.984L14.4528 15.16Z" fill="black"/>
</svg>
