<svg width="24" height="24" viewBox="0 0 24 24" fill="none" xmlns="http://www.w3.org/2000/svg">
<path fill-rule="evenodd" clip-rule="evenodd" d="M7.32494 5C7.1315 5 6.94222 5.0561 6.78002 5.16151C6.6256 5.26186 6.50205 5.4028 6.42277 5.56862L5.06438 9.75457C5.02217 9.82948 5 9.91402 5 10H4.5C4.22386 10 4 10.2239 4 10.5C4 10.7761 4.22386 11 4.5 11H5V15C5 15.2761 5.22386 15.5 5.5 15.5V17C5.5 17.2652 5.60536 17.5196 5.79289 17.7071C5.98043 17.8946 6.23478 18 6.5 18H8C8.26522 18 8.51957 17.8946 8.70711 17.7071C8.89464 17.5196 9 17.2652 9 17V15.5H15V17C15 17.2652 15.1054 17.5196 15.2929 17.7071C15.4804 17.8946 15.7348 18 16 18H17.5C17.7652 18 18.0196 17.8946 18.2071 17.7071C18.3946 17.5196 18.5 17.2652 18.5 17V15.5C18.7761 15.5 19 15.2761 19 15V11H19.5C19.7761 11 20 10.7761 20 10.5C20 10.2239 19.7761 10 19.5 10H19C19 9.91402 18.9778 9.82948 18.9356 9.75457L17.5772 5.56862C17.4979 5.4028 17.3744 5.26186 17.22 5.16151C17.0578 5.0561 16.8685 5 16.6751 5H7.32494ZM17.9582 10L16.6964 6.04236C16.6886 6.02858 16.6815 6.01445 16.6751 6L7.32494 6C7.31852 6.01445 7.31141 6.02858 7.30365 6.04236L6.04182 10H17.9582ZM6 11V14.5H18V11H6ZM17.5 15.5H16V17H17.5V15.5ZM8 15.5H6.5V17H8V15.5ZM8 12C7.72386 12 7.5 12.2239 7.5 12.5C7.5 12.7761 7.72386 13 8 13H9C9.27614 13 9.5 12.7761 9.5 12.5C9.5 12.2239 9.27614 12 9 12H8ZM14.5 12.5C14.5 12.2239 14.7239 12 15 12H16C16.2761 12 16.5 12.2239 16.5 12.5C16.5 12.7761 16.2761 13 16 13H15C14.7239 13 14.5 12.7761 14.5 12.5Z" fill="black"/>
</svg>
