<svg width="24" height="24" viewBox="0 0 24 24" fill="none" xmlns="http://www.w3.org/2000/svg">
<path fill-rule="evenodd" clip-rule="evenodd" d="M4 4.5C4 4.22386 4.22386 4 4.5 4H10.5C10.7761 4 11 4.22386 11 4.5V10.5C11 10.7761 10.7761 11 10.5 11H4.5C4.22386 11 4 10.7761 4 10.5V4.5ZM5 5V10H10V5H5Z" fill="#555555"/>
<path fill-rule="evenodd" clip-rule="evenodd" d="M4 13.5C4 13.2239 4.22386 13 4.5 13H10.5C10.7761 13 11 13.2239 11 13.5V19.5C11 19.7761 10.7761 20 10.5 20H4.5C4.22386 20 4 19.7761 4 19.5V13.5ZM5 14V19H10V14H5Z" fill="#555555"/>
<path fill-rule="evenodd" clip-rule="evenodd" d="M13 4.5C13 4.22386 13.2239 4 13.5 4H19.5C19.7761 4 20 4.22386 20 4.5V10.5C20 10.7761 19.7761 11 19.5 11H13.5C13.2239 11 13 10.7761 13 10.5V4.5ZM14 5V10H19V5H14Z" fill="#555555"/>
<path fill-rule="evenodd" clip-rule="evenodd" d="M13 13.5C13 13.2239 13.2239 13 13.5 13H19.5C19.7761 13 20 13.2239 20 13.5V19.5C20 19.7761 19.7761 20 19.5 20H13.5C13.2239 20 13 19.7761 13 19.5V13.5ZM14 14V19H19V14H14Z" fill="#555555"/>
</svg>
