<svg width="12" height="12" viewBox="0 0 12 12" fill="none" xmlns="http://www.w3.org/2000/svg">
<path fill-rule="evenodd" clip-rule="evenodd" d="M2.5 6C2.5 7.933 4.067 9.5 6 9.5C7.933 9.5 9.5 7.933 9.5 6C9.5 4.067 7.933 2.5 6 2.5C4.067 2.5 2.5 4.067 2.5 6ZM6 2C3.79086 2 2 3.79086 2 6C2 8.20914 3.79086 10 6 10C8.20914 10 10 8.20914 10 6C10 3.79086 8.20914 2 6 2Z" fill="#777777"/>
<path fill-rule="evenodd" clip-rule="evenodd" d="M6 3.25C6.13807 3.25 6.25 3.36193 6.25 3.5V5.89645L7.42678 7.07322C7.52441 7.17085 7.52441 7.32915 7.42678 7.42678C7.32915 7.52441 7.17085 7.52441 7.07322 7.42678L5.82322 6.17678C5.77634 6.12989 5.75 6.0663 5.75 6V3.5C5.75 3.36193 5.86193 3.25 6 3.25Z" fill="#777777"/>
</svg>
