<svg width="24" height="24" viewBox="0 0 24 24" fill="none" xmlns="http://www.w3.org/2000/svg">
<path fill-rule="evenodd" clip-rule="evenodd" d="M13.5 6.5C13.5 7.32843 12.8284 8 12 8C11.1716 8 10.5 7.32843 10.5 6.5C10.5 5.67157 11.1716 5 12 5C12.8284 5 13.5 5.67157 13.5 6.5ZM8 15.5C8 16.3284 7.32843 17 6.5 17C5.67157 17 5 16.3284 5 15.5C5 14.6716 5.67157 14 6.5 14C7.32843 14 8 14.6716 8 15.5ZM19 15.5C19 16.3284 18.3284 17 17.5 17C16.6716 17 16 16.3284 16 15.5C16 14.6716 16.6716 14 17.5 14C18.3284 14 19 14.6716 19 15.5ZM12 9C13.2297 9 14.252 8.11217 14.461 6.94254C14.4563 6.96835 14.4513 6.99403 14.4459 7.01956C16.5405 7.95577 18 10.0574 18 12.5C18 12.6838 17.9917 12.8656 17.9756 13.0452C17.8216 13.0155 17.6626 13 17.5 13C16.1193 13 15 14.1193 15 15.5C15 16.8807 16.1193 18 17.5 18C18.8807 18 20 16.8807 20 15.5C20 14.6536 19.5793 13.9054 18.9357 13.4531C18.9781 13.1414 19 12.8233 19 12.5C19 9.49066 17.101 6.92485 14.436 5.93551C14.1801 4.82668 13.1866 4 12 4C10.8134 4 9.81991 4.82668 9.56399 5.93551C6.89898 6.92485 5 9.49066 5 12.5C5 12.8233 5.02192 13.1414 5.06434 13.4531C4.42067 13.9054 4 14.6536 4 15.5C4 16.8807 5.11929 18 6.5 18C7.88071 18 9 16.8807 9 15.5C9 14.1193 7.88071 13 6.5 13C6.33739 13 6.1784 13.0155 6.02444 13.0452C6.00826 12.8656 6 12.6838 6 12.5C6 10.0574 7.45954 7.95577 9.55405 7.01956C9.53305 6.92019 9.51795 6.81864 9.50914 6.7153C9.61832 7.99522 10.6918 9 12 9ZM15.6938 17.2285C15.9346 17.4801 16.2275 17.6815 16.5551 17.8153C15.3308 18.8655 13.7395 19.5 12 19.5C10.2605 19.5 8.66918 18.8655 7.44488 17.8153C7.7725 17.6815 8.06537 17.4801 8.3062 17.2285C9.32456 18.0252 10.6068 18.5 12 18.5C13.3932 18.5 14.6754 18.0252 15.6938 17.2285Z" fill="black"/>
</svg>
