<svg width="24" height="24" viewBox="0 0 24 24" fill="none" xmlns="http://www.w3.org/2000/svg">
<path fill-rule="evenodd" clip-rule="evenodd" d="M6 5.5C6 5.22386 6.22386 5 6.5 5H13V8.5C13 9.32843 13.6716 10 14.5 10H18V18.5C18 18.7761 17.7761 19 17.5 19H6.5C6.22386 19 6 18.7761 6 18.5V5.5ZM17.2929 9L14 5.70711V8.5C14 8.77614 14.2239 9 14.5 9H17.2929ZM6.5 4C5.67157 4 5 4.67157 5 5.5V18.5C5 19.3284 5.67157 20 6.5 20H17.5C18.3284 20 19 19.3284 19 18.5V9.70711C19 9.44189 18.8946 9.18754 18.7071 9L14 4.29289C13.8125 4.10536 13.5581 4 13.2929 4H6.5ZM8.5 7C8.22386 7 8 7.22386 8 7.5C8 7.77614 8.22386 8 8.5 8H10.5C10.7761 8 11 7.77614 11 7.5C11 7.22386 10.7761 7 10.5 7H8.5ZM8.5 10C8.22386 10 8 10.2239 8 10.5C8 10.7761 8.22386 11 8.5 11H10.5C10.7761 11 11 10.7761 11 10.5C11 10.2239 10.7761 10 10.5 10H8.5ZM8.5 13C8.22386 13 8 13.2239 8 13.5C8 13.7761 8.22386 14 8.5 14H15.5C15.7761 14 16 13.7761 16 13.5C16 13.2239 15.7761 13 15.5 13H8.5ZM8 16.5C8 16.2239 8.22386 16 8.5 16H15.5C15.7761 16 16 16.2239 16 16.5C16 16.7761 15.7761 17 15.5 17H8.5C8.22386 17 8 16.7761 8 16.5Z" fill="black"/>
</svg>
