<svg width="80" height="80" viewBox="0 0 80 80" fill="none" xmlns="http://www.w3.org/2000/svg">
<circle cx="40" cy="40" r="39" stroke="#E7E7E7" stroke-width="2"/>
<path fill-rule="evenodd" clip-rule="evenodd" d="M39.4288 20.316C39.7835 20.1168 40.2163 20.1168 40.571 20.316L58.071 30.1405C58.4389 30.347 58.6666 30.736 58.6666 31.1579V48.8421C58.6666 49.2639 58.4389 49.6529 58.071 49.8594L40.571 59.6839C40.2163 59.8831 39.7835 59.8831 39.4288 59.6839L21.9288 49.8594C21.561 49.6529 21.3333 49.2639 21.3333 48.8421V31.1579C21.3333 30.736 21.561 30.347 21.9288 30.1405L39.4288 20.316ZM23.6666 33.1508L38.8333 41.6654V56.6737L23.6666 48.1591V33.1508ZM41.1666 56.6737L56.3333 48.1591V33.1508L41.1666 41.6654V56.6737ZM39.9999 39.6445L46.3667 36.0701L31.2499 27.5835L24.8831 31.1579L39.9999 39.6445ZM33.6331 26.2456L48.7499 34.7322L55.1167 31.1579L39.9999 22.6712L33.6331 26.2456Z" fill="#AAAAAA"/>
<circle cx="66" cy="66" r="14" fill="#FAFAFA"/>
<path fill-rule="evenodd" clip-rule="evenodd" d="M61.8284 68.7574C61.3049 67.967 61 67.0191 61 66C61 63.2386 63.2386 61 66 61C67.0191 61 67.967 61.3049 68.7574 61.8284L61.8284 68.7574ZM63.2427 70.1716C64.0331 70.6951 64.9809 71 66 71C68.7614 71 71 68.7614 71 66C71 64.9809 70.6951 64.0331 70.1716 63.2427L63.2427 70.1716ZM59 66C59 62.134 62.134 59 66 59C69.866 59 73 62.134 73 66C73 69.866 69.866 73 66 73C62.134 73 59 69.866 59 66Z" fill="#AAAAAA"/>
</svg>
