<svg width="24" height="24" viewBox="0 0 24 24" fill="none" xmlns="http://www.w3.org/2000/svg">
<path fill-rule="evenodd" clip-rule="evenodd" d="M7 5.5C7 5.22386 7.22386 5 7.5 5C7.77614 5 8 5.22386 8 5.5V6H16V5.5C16 5.22386 16.2239 5 16.5 5C16.7761 5 17 5.22386 17 5.5V6H19C19.5523 6 20 6.44772 20 7V9V18C20 18.5523 19.5523 19 19 19H5C4.44772 19 4 18.5523 4 18V9V7C4 6.44772 4.44772 6 5 6H7V5.5ZM7.5 7H16.5H19V9H5V7H7.5ZM19 10H5V18H19V10ZM14.8617 12.1226C15.0461 11.9467 15.0461 11.6614 14.8617 11.4855C14.6773 11.3096 14.3783 11.3096 14.1939 11.4855L11.3609 14.4525L9.80606 12.969C9.62166 12.7931 9.32269 12.7931 9.1383 12.969C8.9539 13.1449 8.9539 13.4302 9.1383 13.6061L10.6931 15.0896C11.0619 15.4415 11.6598 15.4415 12.0286 15.0896L14.8617 12.1226Z" fill="black"/>
</svg>
