<svg width="24" height="24" viewBox="0 0 24 24" fill="none" xmlns="http://www.w3.org/2000/svg">
<path d="M5.5 4.5C5.5 4.22386 5.72386 4 6 4C6.27614 4 6.5 4.22386 6.5 4.5V19.5C6.5 19.7761 6.27614 20 6 20C5.72386 20 5.5 19.7761 5.5 19.5V4.5Z" fill="black"/>
<path d="M6.5 14H11.5858C11.7184 14 11.8456 14.0527 11.9393 14.1464L12.3536 14.5607C12.6349 14.842 13.0164 15 13.4142 15H17.5C18.3284 15 19 14.3284 19 13.5V7.5C19 6.67157 18.3284 6 17.5 6H13.4142C13.2816 6 13.1544 5.94732 13.0607 5.85355L12.6464 5.43934C12.3651 5.15804 11.9836 5 11.5858 5H6.5V6H11.5858C11.7184 6 11.8456 6.05268 11.9393 6.14645L12.3536 6.56066C12.6349 6.84197 13.0164 7 13.4142 7H17.5C17.7761 7 18 7.22386 18 7.5V13.5C18 13.7761 17.7761 14 17.5 14H13.4142C13.2816 14 13.1544 13.9473 13.0607 13.8536L12.6464 13.4393C12.3651 13.158 11.9836 13 11.5858 13H6.5V14Z" fill="black"/>
</svg>
