<svg width="24" height="24" viewBox="0 0 24 24" fill="none" xmlns="http://www.w3.org/2000/svg">
<path fill-rule="evenodd" clip-rule="evenodd" d="M8 11C9.65685 11 11 9.65685 11 8C11 6.34315 9.65685 5 8 5C6.34315 5 5 6.34315 5 8C5 9.65685 6.34315 11 8 11ZM8 12C10.2091 12 12 10.2091 12 8C12 5.79086 10.2091 4 8 4C5.79086 4 4 5.79086 4 8C4 10.2091 5.79086 12 8 12ZM4 17.5C4 15.2909 5.79086 13.5 8 13.5C10.2091 13.5 12 15.2909 12 17.5V19.5C12 19.7761 12.2239 20 12.5 20C12.7761 20 13 19.7761 13 19.5V17.5C13 14.7386 10.7614 12.5 8 12.5C5.23858 12.5 3 14.7386 3 17.5V19.5C3 19.7761 3.22386 20 3.5 20C3.77614 20 4 19.7761 4 19.5V17.5ZM14.7504 15.9679C15.2647 15.6704 15.8617 15.5 16.5001 15.5C18.4331 15.5 20.0001 17.067 20.0001 19C20.0001 19.2761 20.2239 19.5 20.5001 19.5C20.7762 19.5 21.0001 19.2761 21.0001 19C21.0001 16.5147 18.9854 14.5 16.5001 14.5C15.6813 14.5 14.9121 14.7191 14.2497 15.1023C14.0107 15.2406 13.929 15.5465 14.0673 15.7855C14.2056 16.0245 14.5114 16.1062 14.7504 15.9679ZM19 10C19 11.1046 18.1046 12 17 12C15.8954 12 15 11.1046 15 10C15 8.89543 15.8954 8 17 8C18.1046 8 19 8.89543 19 10ZM20 10C20 11.6569 18.6569 13 17 13C15.3431 13 14 11.6569 14 10C14 8.34315 15.3431 7 17 7C18.6569 7 20 8.34315 20 10Z" fill="black"/>
</svg>
