<svg width="24" height="24" viewBox="0 0 24 24" fill="none" xmlns="http://www.w3.org/2000/svg">
<path fill-rule="evenodd" clip-rule="evenodd" d="M12 4C7.58172 4 4 7.58172 4 12C4 16.4183 7.58172 20 12 20C16.4183 20 20 16.4183 20 12C20 7.58172 16.4183 4 12 4ZM10.1348 5.25123C8.16135 5.79543 6.53724 7.18207 5.67363 9H8.64143C8.8051 8.12107 9.03937 7.3226 9.33065 6.64229C9.55858 6.10993 9.82719 5.63646 10.1348 5.25123ZM8.49022 10H5.28988C5.10128 10.6337 5 11.305 5 12C5 12.695 5.10128 13.3663 5.28988 14H8.49021C8.41486 13.3606 8.375 12.6899 8.375 12C8.375 11.3101 8.41486 10.6394 8.49022 10ZM9.49759 14C9.41811 13.3687 9.375 12.6976 9.375 12C9.375 11.3024 9.41811 10.6313 9.49759 10H14.5024C14.5819 10.6313 14.625 11.3024 14.625 12C14.625 12.6976 14.5819 13.3687 14.5024 14H9.49759ZM8.64142 15H5.67363C6.53723 16.8179 8.16133 18.2045 10.1348 18.7488C9.82716 18.3635 9.55857 17.8901 9.33065 17.3578C9.03936 16.6774 8.8051 15.879 8.64142 15ZM13.8652 18.7488C15.8387 18.2045 17.4628 16.8179 18.3264 15H15.3586C15.1949 15.879 14.9606 16.6774 14.6693 17.3578C14.4414 17.8901 14.1728 18.3635 13.8652 18.7488ZM14.34 15C14.1913 15.7398 13.9901 16.4036 13.7501 16.9642C13.4832 17.5875 13.1782 18.06 12.865 18.3694C12.554 18.6767 12.2622 18.7987 12 18.7987C11.7378 18.7987 11.446 18.6767 11.135 18.3694C10.8218 18.06 10.5168 17.5875 10.2499 16.9642C10.0099 16.4036 9.8087 15.7398 9.65996 15H14.34ZM15.5098 14H18.7101C18.8987 13.3663 19 12.695 19 12C19 11.305 18.8987 10.6337 18.7101 10H15.5098C15.5851 10.6394 15.625 11.3101 15.625 12C15.625 12.6899 15.5851 13.3606 15.5098 14ZM15.3586 9H18.3264C17.4628 7.18207 15.8386 5.79543 13.8652 5.25123C14.1728 5.63646 14.4414 6.10993 14.6693 6.64229C14.9606 7.3226 15.1949 8.12107 15.3586 9ZM14.34 9H9.65997C9.80871 8.26022 10.0099 7.59639 10.2499 7.03589C10.5168 6.41251 10.8218 5.94001 11.135 5.63063C11.446 5.32335 11.7378 5.20135 12 5.20135C12.2622 5.20135 12.554 5.32335 12.865 5.63063C13.1782 5.94001 13.4832 6.41251 13.7501 7.03589C13.9901 7.59639 14.1913 8.26022 14.34 9Z" fill="black"/>
</svg>
