<svg width="24" height="24" viewBox="0 0 24 24" fill="none" xmlns="http://www.w3.org/2000/svg">
<path fill-rule="evenodd" clip-rule="evenodd" d="M10.125 5C10.0918 5 10.0601 5.01317 10.0366 5.03661C10.0132 5.06005 10 5.09185 10 5.125V9.5C10 9.77614 9.77614 10 9.5 10H5.125C5.09185 10 5.06005 10.0132 5.03661 10.0366C5.01317 10.0601 5 10.0918 5 10.125V13.875C5 13.9082 5.01317 13.9399 5.03661 13.9634C5.06005 13.9868 5.09185 14 5.125 14H9.5C9.77614 14 10 14.2239 10 14.5V18.875C10 18.9082 10.0132 18.9399 10.0366 18.9634C10.0601 18.9868 10.0918 19 10.125 19H13.875C13.9082 19 13.9399 18.9868 13.9634 18.9634C13.9868 18.9399 14 18.9082 14 18.875V14.5C14 14.2239 14.2239 14 14.5 14H18.875C18.9082 14 18.9399 13.9868 18.9634 13.9634C18.9868 13.9399 19 13.9082 19 13.875V10.125C19 10.0918 18.9868 10.0601 18.9634 10.0366C18.9399 10.0132 18.9082 10 18.875 10H14.5C14.2239 10 14 9.77614 14 9.5V5.125C14 5.09185 13.9868 5.06005 13.9634 5.03661C13.9399 5.01317 13.9082 5 13.875 5H10.125ZM9.3295 4.3295C9.54048 4.11853 9.82663 4 10.125 4H13.875C14.1734 4 14.4595 4.11853 14.6705 4.3295C14.8815 4.54048 15 4.82663 15 5.125V9H18.875C19.1734 9 19.4595 9.11853 19.6705 9.3295C19.8815 9.54048 20 9.82663 20 10.125V13.875C20 14.1734 19.8815 14.4595 19.6705 14.6705C19.4595 14.8815 19.1734 15 18.875 15H15V18.875C15 19.1734 14.8815 19.4595 14.6705 19.6705C14.4595 19.8815 14.1734 20 13.875 20H10.125C9.82663 20 9.54048 19.8815 9.3295 19.6705C9.11853 19.4595 9 19.1734 9 18.875V15H5.125C4.82663 15 4.54048 14.8815 4.3295 14.6705C4.11853 14.4595 4 14.1734 4 13.875V10.125C4 9.82663 4.11853 9.54048 4.3295 9.3295C4.54048 9.11853 4.82663 9 5.125 9H9V5.125C9 4.82663 9.11853 4.54048 9.3295 4.3295Z" fill="black"/>
</svg>
