<svg width="24" height="24" viewBox="0 0 24 24" fill="none" xmlns="http://www.w3.org/2000/svg">
<path fill-rule="evenodd" clip-rule="evenodd" d="M10.667 8.25008C10.667 6.82335 11.8236 5.66675 13.2503 5.66675C14.6771 5.66675 15.8337 6.82335 15.8337 8.25008C15.8337 9.67682 14.6771 10.8334 13.2503 10.8334C11.8236 10.8334 10.667 9.67682 10.667 8.25008ZM13.2503 6.66675C12.3759 6.66675 11.667 7.37563 11.667 8.25008C11.667 9.12453 12.3759 9.83342 13.2503 9.83342C14.1248 9.83342 14.8337 9.12453 14.8337 8.25008C14.8337 7.37563 14.1248 6.66675 13.2503 6.66675Z" fill="black"/>
<path fill-rule="evenodd" clip-rule="evenodd" d="M20 4.5C20 4.22386 19.7762 4 19.5 4H4.5C4.22386 4 4 4.22386 4 4.5V19.5C4 19.7761 4.22386 20 4.5 20H19.5C19.7762 20 20 19.7761 20 19.5V4.5ZM5 5H19V9.2931L13.2501 15.043L7.83335 9.62622L5 12.4596V5ZM13.9572 15.7501L17.2071 19H19V10.7073L13.9572 15.7501ZM5 13.8738V19H15.7929L7.83335 11.0404L5 13.8738Z" fill="black"/>
</svg>
