<svg width="24" height="24" viewBox="0 0 24 24" fill="none" xmlns="http://www.w3.org/2000/svg">
<path d="M21 12C21 16.9706 16.9706 21 12 21C7.02944 21 3 16.9706 3 12C3 7.02944 7.02944 3 12 3C16.9706 3 21 7.02944 21 12Z" fill="url(#paint0_linear_7566_40534)"/>
<path fill-rule="evenodd" clip-rule="evenodd" d="M12 20C16.4183 20 20 16.4183 20 12C20 7.58172 16.4183 4 12 4C7.58172 4 4 7.58172 4 12C4 16.4183 7.58172 20 12 20ZM12 22C17.5228 22 22 17.5228 22 12C22 6.47715 17.5228 2 12 2C6.47715 2 2 6.47715 2 12C2 17.5228 6.47715 22 12 22Z" fill="url(#paint1_linear_7566_40534)"/>
<path fill-rule="evenodd" clip-rule="evenodd" d="M22 12C22 17.5228 17.5228 22 12 22C6.47715 22 2 17.5228 2 12C2 6.47715 6.47715 2 12 2C17.5228 2 22 6.47715 22 12ZM21 12C21 16.9706 16.9706 21 12 21C7.02944 21 3 16.9706 3 12C3 7.02944 7.02944 3 12 3C16.9706 3 21 7.02944 21 12Z" fill="url(#paint2_linear_7566_40534)"/>
<path d="M12 12.5V6.5L10 11.5L7 15.5L12 12.5Z" fill="url(#paint3_linear_7566_40534)"/>
<path d="M12 12.5V6.5L10 11.5L11 12L12 12.5Z" fill="url(#paint4_linear_7566_40534)"/>
<path d="M12 12.5V6.5L14 11.5L17 15.5L12 12.5Z" fill="url(#paint5_linear_7566_40534)"/>
<path d="M12 12.5V6.5L14 11.5L13 12L12 12.5Z" fill="url(#paint6_linear_7566_40534)"/>
<path d="M12 12.5L17 15.5L12 14.5L7 15.5L12 12.5Z" fill="url(#paint7_linear_7566_40534)"/>
<path d="M12 12.5V14V14.5L7 15.5L12 12.5Z" fill="url(#paint8_linear_7566_40534)"/>
<defs>
<linearGradient id="paint0_linear_7566_40534" x1="12" y1="6.5" x2="12" y2="21" gradientUnits="userSpaceOnUse">
<stop stop-color="#6A84A1"/>
<stop offset="1" stop-color="#060F1B"/>
</linearGradient>
<linearGradient id="paint1_linear_7566_40534" x1="12" y1="2" x2="12" y2="22" gradientUnits="userSpaceOnUse">
<stop offset="0.0189987" stop-color="#D1E2F1"/>
<stop offset="0.154283" stop-color="#A1B7CC"/>
<stop offset="0.644229" stop-color="#7A94AC"/>
<stop offset="1" stop-color="#43586C"/>
</linearGradient>
<linearGradient id="paint2_linear_7566_40534" x1="12" y1="3.5" x2="12" y2="18.648" gradientUnits="userSpaceOnUse">
<stop offset="0.0189987" stop-color="#D1E2F1"/>
<stop offset="0.154283" stop-color="#BDD0E1"/>
<stop offset="0.644229" stop-color="#7A94AC"/>
<stop offset="1" stop-color="#43586C"/>
</linearGradient>
<linearGradient id="paint3_linear_7566_40534" x1="11.5" y1="12.5" x2="8.5" y2="9" gradientUnits="userSpaceOnUse">
<stop stop-color="#BDD0E1"/>
<stop offset="1" stop-color="#43586C"/>
</linearGradient>
<linearGradient id="paint4_linear_7566_40534" x1="10.5" y1="7" x2="10.5" y2="12.5" gradientUnits="userSpaceOnUse">
<stop offset="0.0189987" stop-color="#A6BBCE"/>
<stop offset="1" stop-color="#FBFBFB"/>
</linearGradient>
<linearGradient id="paint5_linear_7566_40534" x1="15.75" y1="7.25" x2="15.75" y2="15.5" gradientUnits="userSpaceOnUse">
<stop offset="0.0189987" stop-color="#A6BBCE"/>
<stop offset="1" stop-color="#FBFBFB"/>
</linearGradient>
<linearGradient id="paint6_linear_7566_40534" x1="13" y1="9.5" x2="11" y2="14.5" gradientUnits="userSpaceOnUse">
<stop stop-color="#BDD0E1"/>
<stop offset="1" stop-color="#43586C"/>
</linearGradient>
<linearGradient id="paint7_linear_7566_40534" x1="16" y1="14.5" x2="10" y2="10" gradientUnits="userSpaceOnUse">
<stop stop-color="#BDD0E1"/>
<stop offset="1" stop-color="#43586C"/>
</linearGradient>
<linearGradient id="paint8_linear_7566_40534" x1="8.25" y1="12.75" x2="8.25" y2="15.5" gradientUnits="userSpaceOnUse">
<stop offset="0.0189987" stop-color="#A6BBCE"/>
<stop offset="1" stop-color="#FBFBFB"/>
</linearGradient>
</defs>
</svg>
