<svg width="24" height="24" viewBox="0 0 24 24" fill="none" xmlns="http://www.w3.org/2000/svg">
<path d="M3.59757 4.28078L5.46143 3.42817C9.62417 1.52394 14.3758 1.52394 18.5386 3.42817L20.4024 4.28078C20.7937 4.45976 21.0321 4.874 20.9965 5.31317L20.3847 12.8701C20.1738 15.474 18.7819 17.823 16.6291 19.2078L12.5333 21.8426C12.207 22.0525 11.793 22.0525 11.4667 21.8426L7.37089 19.2078C5.21809 17.823 3.82617 15.474 3.61534 12.8701L3.0035 5.31317C2.96794 4.874 3.2063 4.45976 3.59757 4.28078Z" fill="url(#paint0_radial_6944_28915)"/>
<path fill-rule="evenodd" clip-rule="evenodd" d="M5.0507 5.81538L5.60882 12.7087C5.77056 14.7064 6.8368 16.4862 8.45291 17.5258L11.459 19.4595C11.7885 19.6715 12.2115 19.6715 12.541 19.4595L15.5471 17.5258C17.1632 16.4862 18.2294 14.7064 18.3912 12.7087L18.9493 5.81538L17.7066 5.24691C14.0722 3.58436 9.92782 3.58436 6.29341 5.24691L5.0507 5.81538ZM5.46143 3.42817L3.59757 4.28078C3.2063 4.45976 2.96794 4.874 3.0035 5.31317L3.61534 12.8701C3.82617 15.474 5.21809 17.823 7.37089 19.2078L11.4667 21.8426C11.793 22.0525 12.207 22.0525 12.5333 21.8426L16.6291 19.2078C18.7819 17.823 20.1738 15.474 20.3847 12.8701L20.9965 5.31317C21.0321 4.874 20.7937 4.45976 20.4024 4.28078L18.5386 3.42817C14.3758 1.52394 9.62417 1.52394 5.46143 3.42817Z" fill="url(#paint1_linear_6944_28915)"/>
<path fill-rule="evenodd" clip-rule="evenodd" d="M19.9417 5.22876L18.096 4.38442C14.2141 2.6087 9.78585 2.6087 5.90403 4.38442L4.05891 5.22871C4.05889 5.22857 4.05877 5.22877 4.05891 5.22871L4.67075 12.7856C4.85594 15.0728 6.07755 17.1221 7.9461 18.3241L11.459 20.5838C11.7885 20.7958 12.2115 20.7958 12.541 20.5838L16.0539 18.3241C17.9224 17.1221 19.1441 15.0728 19.3293 12.7856L19.9417 5.22876C19.9414 5.22874 19.9418 5.2284 19.9417 5.22876ZM5.46143 3.42817L3.59757 4.28078C3.2063 4.45976 2.96794 4.874 3.0035 5.31317L3.61534 12.8701C3.82617 15.474 5.21809 17.823 7.37089 19.2078L11.4667 21.8426C11.793 22.0525 12.207 22.0525 12.5333 21.8426L16.6291 19.2078C18.7819 17.823 20.1738 15.474 20.3847 12.8701L20.9965 5.31317C21.0321 4.874 20.7937 4.45976 20.4024 4.28078L18.5386 3.42817C14.3758 1.52394 9.62417 1.52394 5.46143 3.42817Z" fill="url(#paint2_linear_6944_28915)"/>
<path d="M11 16L11.6286 14.4285C11.7627 14.0932 12.2373 14.0932 12.3714 14.4285L13 16L12 17.5L11 16Z" fill="url(#paint3_linear_6944_28915)"/>
<path d="M14.8201 16.1655L13 16L12 17.5L13.75 18L15.0473 16.8649C15.312 16.6332 15.1704 16.1973 14.8201 16.1655Z" fill="url(#paint4_linear_6944_28915)"/>
<path d="M12 19.25V17.5L13.75 18L14.0814 19.823C14.1446 20.1703 13.7597 20.4232 13.466 20.2273L12 19.25Z" fill="url(#paint5_linear_6944_28915)"/>
<path d="M12 19.25V17.5L10.25 18L9.91855 19.823C9.85541 20.1703 10.2403 20.4232 10.534 20.2273L12 19.25Z" fill="url(#paint6_linear_6944_28915)"/>
<path d="M11 16L12 17.5L10.25 18L8.95269 16.8649C8.68798 16.6332 8.82959 16.1973 9.17988 16.1655L11 16Z" fill="url(#paint7_linear_6944_28915)"/>
<g style="mix-blend-mode:overlay" opacity="0.5" filter="url(#filter0_f_6944_28915)">
<path d="M12 13.5L12.2116 17.2088L15.8042 16.2639L12.3424 17.6112L14.3511 20.7361L12 17.86L9.64886 20.7361L11.6576 17.6112L8.19577 16.2639L11.7884 17.2088L12 13.5Z" fill="white"/>
</g>
<g filter="url(#filter1_d_6944_28915)">
<path fill-rule="evenodd" clip-rule="evenodd" d="M4.26812 7.03439C4.60553 6.93223 4.97004 7.06298 5.16559 7.3563L6.49995 9.35784L7.83431 7.3563C8.02986 7.06298 8.39437 6.93223 8.73178 7.03439C9.06919 7.13655 9.29995 7.44753 9.29995 7.80006V12.8001C9.29995 13.2419 8.94178 13.6001 8.49995 13.6001C8.05812 13.6001 7.69995 13.2419 7.69995 12.8001V10.4423L7.16559 11.2438C7.01722 11.4664 6.76743 11.6001 6.49995 11.6001C6.23247 11.6001 5.98268 11.4664 5.83431 11.2438L5.29995 10.4423V12.8001C5.29995 13.2419 4.94178 13.6001 4.49995 13.6001C4.05812 13.6001 3.69995 13.2419 3.69995 12.8001V7.80006C3.69995 7.44753 3.93072 7.13655 4.26812 7.03439ZM9.69995 9.80006C9.69995 8.25366 10.9536 7.00006 12.5 7.00006C14.0463 7.00006 15.3 8.25366 15.3 9.80006V10.8001C15.3 12.3465 14.0463 13.6001 12.5 13.6001C10.9536 13.6001 9.69995 12.3465 9.69995 10.8001V9.80006ZM12.5 8.60006C11.8372 8.60006 11.3 9.13732 11.3 9.80006V10.8001C11.3 11.4628 11.8372 12.0001 12.5 12.0001C13.1627 12.0001 13.7 11.4628 13.7 10.8001V9.80006C13.7 9.13732 13.1627 8.60006 12.5 8.60006ZM15.7 7.80006C15.7 7.35823 16.0581 7.00006 16.5 7.00006H18C18.6743 7.00006 19.2477 7.21665 19.6473 7.64483C20.0352 8.06048 20.175 8.58533 20.175 9.05006C20.175 9.42375 20.086 9.8028 19.9194 10.1321C19.9361 10.1514 19.9524 10.171 19.9684 10.1909C20.2881 10.5906 20.425 11.0884 20.425 11.5501C20.425 12.0117 20.2881 12.5095 19.9684 12.9092C19.6324 13.3292 19.1232 13.6001 18.5 13.6001H16.5C16.0581 13.6001 15.7 13.2419 15.7 12.8001V7.80006ZM18.4341 9.50006C18.441 9.49166 18.4495 9.48044 18.4593 9.46568C18.5227 9.37064 18.575 9.21443 18.575 9.05006C18.575 8.88979 18.5272 8.78964 18.4776 8.73654C18.4397 8.69597 18.3256 8.60006 18 8.60006H17.3V9.50006H18.4341ZM17.3 11.1001H18.5C18.6267 11.1001 18.68 11.1417 18.719 11.1904C18.7743 11.2595 18.825 11.3867 18.825 11.5501C18.825 11.7134 18.7743 11.8406 18.719 11.9097C18.68 11.9584 18.6267 12.0001 18.5 12.0001H17.3V11.1001ZM18.4117 9.52222C18.4116 9.52195 18.4136 9.52021 18.4176 9.51781C18.4138 9.52129 18.4117 9.52249 18.4117 9.52222Z" fill="white"/>
</g>
<defs>
<filter id="filter0_f_6944_28915" x="7.1958" y="12.5" width="9.6084" height="9.23608" filterUnits="userSpaceOnUse" color-interpolation-filters="sRGB">
<feFlood flood-opacity="0" result="BackgroundImageFix"/>
<feBlend mode="normal" in="SourceGraphic" in2="BackgroundImageFix" result="shape"/>
<feGaussianBlur stdDeviation="0.5" result="effect1_foregroundBlur_6944_28915"/>
</filter>
<filter id="filter1_d_6944_28915" x="2.69995" y="7" width="18.7251" height="8.6001" filterUnits="userSpaceOnUse" color-interpolation-filters="sRGB">
<feFlood flood-opacity="0" result="BackgroundImageFix"/>
<feColorMatrix in="SourceAlpha" type="matrix" values="0 0 0 0 0 0 0 0 0 0 0 0 0 0 0 0 0 0 127 0" result="hardAlpha"/>
<feOffset dy="1"/>
<feGaussianBlur stdDeviation="0.5"/>
<feComposite in2="hardAlpha" operator="out"/>
<feColorMatrix type="matrix" values="0 0 0 0 0.329167 0 0 0 0 0.21773 0 0 0 0 0.0891493 0 0 0 1 0"/>
<feBlend mode="normal" in2="BackgroundImageFix" result="effect1_dropShadow_6944_28915"/>
<feBlend mode="normal" in="SourceGraphic" in2="effect1_dropShadow_6944_28915" result="shape"/>
</filter>
<radialGradient id="paint0_radial_6944_28915" cx="0" cy="0" r="1" gradientUnits="userSpaceOnUse" gradientTransform="translate(12 9.5) rotate(90) scale(8.5 7.65)">
<stop stop-color="#835C40"/>
<stop offset="1" stop-color="#412515"/>
</radialGradient>
<linearGradient id="paint1_linear_6944_28915" x1="12" y1="2" x2="12" y2="22" gradientUnits="userSpaceOnUse">
<stop offset="0.0985348" stop-color="#835C40"/>
<stop offset="0.612764" stop-color="#B06631"/>
<stop offset="0.88095" stop-color="#C49052"/>
</linearGradient>
<linearGradient id="paint2_linear_6944_28915" x1="12" y1="2" x2="12" y2="22" gradientUnits="userSpaceOnUse">
<stop stop-color="#DEAC88"/>
<stop offset="0.0931638" stop-color="#F3BC94"/>
<stop offset="0.509847" stop-color="#B06631"/>
<stop offset="0.801526" stop-color="#C49052"/>
<stop offset="1" stop-color="#FFD0AE"/>
</linearGradient>
<linearGradient id="paint3_linear_6944_28915" x1="13" y1="15.75" x2="12" y2="16" gradientUnits="userSpaceOnUse">
<stop stop-color="#BB7D43"/>
<stop offset="1" stop-color="#FCE1B8"/>
</linearGradient>
<linearGradient id="paint4_linear_6944_28915" x1="15.75" y1="17.125" x2="14.8676" y2="18.7794" gradientUnits="userSpaceOnUse">
<stop stop-color="#C1894C"/>
<stop offset="1" stop-color="#F0D8B3"/>
</linearGradient>
<linearGradient id="paint5_linear_6944_28915" x1="14.25" y1="19.3281" x2="12.6339" y2="20.4469" gradientUnits="userSpaceOnUse">
<stop stop-color="#C1894C"/>
<stop offset="1" stop-color="#F0D8B3"/>
</linearGradient>
<linearGradient id="paint6_linear_6944_28915" x1="12" y1="19.3281" x2="10.3839" y2="20.4469" gradientUnits="userSpaceOnUse">
<stop stop-color="#C1894C"/>
<stop offset="1" stop-color="#F0D8B3"/>
</linearGradient>
<linearGradient id="paint7_linear_6944_28915" x1="12" y1="17.125" x2="11.1176" y2="18.7794" gradientUnits="userSpaceOnUse">
<stop stop-color="#C1894C"/>
<stop offset="1" stop-color="#F0D8B3"/>
</linearGradient>
</defs>
</svg>
