<svg width="24" height="24" viewBox="0 0 24 24" fill="none" xmlns="http://www.w3.org/2000/svg">
<path d="M3.59757 4.28078L5.46143 3.42817C9.62417 1.52394 14.3758 1.52394 18.5386 3.42817L20.4024 4.28078C20.7937 4.45976 21.0321 4.874 20.9965 5.31317L20.3847 12.8701C20.1738 15.474 18.7819 17.823 16.6291 19.2078L12.5333 21.8426C12.207 22.0525 11.793 22.0525 11.4667 21.8426L7.37089 19.2078C5.21809 17.823 3.82617 15.474 3.61534 12.8701L3.0035 5.31317C2.96794 4.874 3.2063 4.45976 3.59757 4.28078Z" fill="url(#paint0_radial_6954_29736)"/>
<path d="M22 16H14.8284C14.298 16 13.7893 16.2107 13.4142 16.5858L12 18H18.7574C19.553 18 20.3161 17.6839 20.8787 17.1213L22 16Z" fill="url(#paint1_linear_6954_29736)"/>
<path d="M2 16H9.17157C9.70201 16 10.2107 16.2107 10.5858 16.5858L12 18H5.24264C4.44699 18 3.68393 17.6839 3.12132 17.1213L2 16Z" fill="url(#paint2_linear_6954_29736)"/>
<path d="M19 18H14C12.8954 18 12 18.8954 12 20H15.7574C16.553 20 17.3161 19.6839 17.8787 19.1213L19 18Z" fill="url(#paint3_linear_6954_29736)"/>
<path d="M5 18H10C11.1046 18 12 18.8954 12 20H8.24264C7.44699 20 6.68393 19.6839 6.12132 19.1213L5 18Z" fill="url(#paint4_linear_6954_29736)"/>
<path fill-rule="evenodd" clip-rule="evenodd" d="M5.0507 5.81538L5.60882 12.7087C5.77056 14.7064 6.8368 16.4862 8.45291 17.5258L12 19.8076L15.5471 17.5258C17.1632 16.4862 18.2294 14.7064 18.3912 12.7087L18.9493 5.81538L17.7066 5.24691C14.0722 3.58436 9.92782 3.58436 6.29341 5.24691L5.0507 5.81538ZM5.46143 3.42817L3.59757 4.28078C3.2063 4.45976 2.96794 4.874 3.0035 5.31317L3.61534 12.8701C3.82617 15.474 5.21809 17.823 7.37089 19.2078L11.4667 21.8426C11.793 22.0525 12.207 22.0525 12.5333 21.8426L16.6291 19.2078C18.7819 17.823 20.1738 15.474 20.3847 12.8701L20.9965 5.31317C21.0321 4.874 20.7937 4.45976 20.4024 4.28078L18.5386 3.42817C14.3758 1.52394 9.62417 1.52394 5.46143 3.42817Z" fill="url(#paint5_linear_6954_29736)"/>
<path fill-rule="evenodd" clip-rule="evenodd" d="M19.9417 5.22876L18.096 4.38442C14.2141 2.6087 9.78585 2.6087 5.90403 4.38442L4.05891 5.22871C4.05889 5.22857 4.05877 5.22877 4.05891 5.22871L4.67075 12.7856C4.85594 15.0728 6.07755 17.1221 7.9461 18.3241L11.459 20.5838C11.7885 20.7958 12.2115 20.7958 12.541 20.5838L16.0539 18.3241C17.9224 17.1221 19.1441 15.0728 19.3293 12.7856L19.9417 5.22876C19.9414 5.22874 19.9418 5.2284 19.9417 5.22876ZM5.46143 3.42817L3.59757 4.28078C3.2063 4.45976 2.96794 4.874 3.0035 5.31317L3.61534 12.8701C3.82617 15.474 5.21809 17.823 7.37089 19.2078L11.4667 21.8426C11.793 22.0525 12.207 22.0525 12.5333 21.8426L16.6291 19.2078C18.7819 17.823 20.1738 15.474 20.3847 12.8701L20.9965 5.31317C21.0321 4.874 20.7937 4.45976 20.4024 4.28078L18.5386 3.42817C14.3758 1.52394 9.62417 1.52394 5.46143 3.42817Z" fill="url(#paint6_linear_6954_29736)"/>
<path d="M11 17L11.6286 15.4285C11.7627 15.0932 12.2373 15.0932 12.3714 15.4285L13 17L12 18.5L11 17Z" fill="url(#paint7_linear_6954_29736)"/>
<path d="M11 17L11.6143 15.4642C11.6961 15.2598 12 15.3183 12 15.5385V17V18.5L11 17Z" fill="url(#paint8_linear_6954_29736)"/>
<path d="M14.8201 17.1655L13 17L12 18.5L13.75 19L15.0473 17.8649C15.312 17.6332 15.1704 17.1973 14.8201 17.1655Z" fill="url(#paint9_linear_6954_29736)"/>
<path d="M14.7978 17.1634L13.1185 17.0108C13.0455 17.0041 12.9747 17.038 12.934 17.099L12.3233 18.015C12.2177 18.1734 12.3723 18.3759 12.553 18.3157L13.5 18L14.8429 17.5524C15.0485 17.4838 15.0136 17.1831 14.7978 17.1634Z" fill="url(#paint10_linear_6954_29736)"/>
<path d="M12 20.25V18.5L13.75 19L14.0814 20.823C14.1446 21.1703 13.7597 21.4232 13.466 21.2273L12 20.25Z" fill="url(#paint11_linear_6954_29736)"/>
<path d="M12.75 19.5L12 18.5L13.75 19L14.0771 20.7992C14.116 21.0128 13.8344 21.1266 13.7139 20.9459L12.75 19.5Z" fill="url(#paint12_linear_6954_29736)"/>
<path d="M12 20.25V18.5L10.25 19L9.91855 20.823C9.85541 21.1703 10.2403 21.4232 10.534 21.2273L12 20.25Z" fill="url(#paint13_linear_6954_29736)"/>
<path d="M12 20.25V18.5L10.75 20.25L10.3047 20.9179C10.1834 21.0998 10.4002 21.3166 10.5821 21.1953L12 20.25Z" fill="url(#paint14_linear_6954_29736)"/>
<path d="M11 17L12 18.5L10.25 19L8.95269 17.8649C8.68798 17.6332 8.82959 17.1973 9.17988 17.1655L11 17Z" fill="url(#paint15_linear_6954_29736)"/>
<path d="M9.75 17.75L12 18.5L10.25 19L8.99812 17.9046C8.83379 17.7608 8.98592 17.4953 9.19307 17.5644L9.75 17.75Z" fill="url(#paint16_linear_6954_29736)"/>
<g style="mix-blend-mode:overlay" opacity="0.5" filter="url(#filter0_f_6954_29736)">
<path d="M12 14.5L12.2116 18.2088L15.8042 17.2639L12.3424 18.6112L14.3511 21.7361L12 18.86L9.64886 21.7361L11.6576 18.6112L8.19577 17.2639L11.7884 18.2088L12 14.5Z" fill="white"/>
</g>
<g filter="url(#filter1_d_6954_29736)">
<path fill-rule="evenodd" clip-rule="evenodd" d="M5.76712 7C6.19079 7 6.53425 7.35313 6.53425 7.78873V9.46478H6.88773L9.0603 7.23101C9.35988 6.923 9.8456 6.923 10.1452 7.23101C10.4448 7.53903 10.4448 8.03843 10.1452 8.34645L8.24328 10.3019L10.1921 12.7063C10.4633 13.041 10.4193 13.5383 10.0938 13.8172C9.76837 14.096 9.28465 14.0508 9.01342 13.7162L6.84618 11.0422H6.53425V13.2113C6.53425 13.6469 6.19079 14 5.76712 14C5.34345 14 5 13.6469 5 13.2113V7.78873C5 7.35313 5.34345 7 5.76712 7ZM12 7C12.4237 7 12.7671 7.35313 12.7671 7.78873V13.2113C12.7671 13.6469 12.4237 14 12 14C11.5763 14 11.2329 13.6469 11.2329 13.2113V7.78873C11.2329 7.35313 11.5763 7 12 7ZM13.6301 9.09785C13.6301 7.93924 14.5436 7 15.6705 7H17.7534C18.1771 7 18.5205 7.35313 18.5205 7.78873C18.5205 8.22433 18.1771 8.57746 17.7534 8.57746H15.6705C15.391 8.57746 15.1644 8.81045 15.1644 9.09785C15.1644 9.36029 15.3545 9.58166 15.6077 9.61422L17.2127 9.82049C18.2338 9.95171 19 10.8441 19 11.9021C19 13.0607 18.0865 14 16.9596 14H14.8767C14.453 14 14.1096 13.6469 14.1096 13.2113C14.1096 12.7756 14.453 12.4225 14.8767 12.4225H16.9596C17.2392 12.4225 17.4658 12.1895 17.4658 11.9021C17.4658 11.6397 17.2757 11.4183 17.0224 11.3858L15.4174 11.1795C14.3964 11.0483 13.6301 10.1558 13.6301 9.09785Z" fill="white"/>
</g>
<defs>
<filter id="filter0_f_6954_29736" x="7.1958" y="13.5" width="9.6084" height="9.23608" filterUnits="userSpaceOnUse" color-interpolation-filters="sRGB">
<feFlood flood-opacity="0" result="BackgroundImageFix"/>
<feBlend mode="normal" in="SourceGraphic" in2="BackgroundImageFix" result="shape"/>
<feGaussianBlur stdDeviation="0.5" result="effect1_foregroundBlur_6954_29736"/>
</filter>
<filter id="filter1_d_6954_29736" x="4" y="7" width="16" height="9" filterUnits="userSpaceOnUse" color-interpolation-filters="sRGB">
<feFlood flood-opacity="0" result="BackgroundImageFix"/>
<feColorMatrix in="SourceAlpha" type="matrix" values="0 0 0 0 0 0 0 0 0 0 0 0 0 0 0 0 0 0 127 0" result="hardAlpha"/>
<feOffset dy="1"/>
<feGaussianBlur stdDeviation="0.5"/>
<feComposite in2="hardAlpha" operator="out"/>
<feColorMatrix type="matrix" values="0 0 0 0 0.329167 0 0 0 0 0.21773 0 0 0 0 0.0891493 0 0 0 1 0"/>
<feBlend mode="normal" in2="BackgroundImageFix" result="effect1_dropShadow_6954_29736"/>
<feBlend mode="normal" in="SourceGraphic" in2="effect1_dropShadow_6954_29736" result="shape"/>
</filter>
<radialGradient id="paint0_radial_6954_29736" cx="0" cy="0" r="1" gradientUnits="userSpaceOnUse" gradientTransform="translate(12 9.5) rotate(90) scale(9 8.1)">
<stop stop-color="#9C5E15"/>
<stop offset="1" stop-color="#321F08"/>
</radialGradient>
<linearGradient id="paint1_linear_6954_29736" x1="21" y1="17" x2="15.4463" y2="19.2678" gradientUnits="userSpaceOnUse">
<stop stop-color="#F5BA4B"/>
<stop offset="1" stop-color="#744612"/>
</linearGradient>
<linearGradient id="paint2_linear_6954_29736" x1="3" y1="17" x2="8.55371" y2="19.2678" gradientUnits="userSpaceOnUse">
<stop stop-color="#F5BA4B"/>
<stop offset="1" stop-color="#744612"/>
</linearGradient>
<linearGradient id="paint3_linear_6954_29736" x1="18.3" y1="19" x2="14.1068" y2="20.1986" gradientUnits="userSpaceOnUse">
<stop stop-color="#F5BA4B"/>
<stop offset="1" stop-color="#744612"/>
</linearGradient>
<linearGradient id="paint4_linear_6954_29736" x1="5.7" y1="19" x2="9.89323" y2="20.1986" gradientUnits="userSpaceOnUse">
<stop stop-color="#F5BA4B"/>
<stop offset="1" stop-color="#744612"/>
</linearGradient>
<linearGradient id="paint5_linear_6954_29736" x1="14.5" y1="1.44444" x2="14.5" y2="23.1111" gradientUnits="userSpaceOnUse">
<stop offset="0.0996343" stop-color="#764C0B"/>
<stop offset="0.559036" stop-color="#7A4C00"/>
<stop offset="0.763564" stop-color="#BC7C14"/>
</linearGradient>
<linearGradient id="paint6_linear_6954_29736" x1="14.5" y1="1.44444" x2="14.5" y2="23.1111" gradientUnits="userSpaceOnUse">
<stop offset="0.0189987" stop-color="#FFE8BC"/>
<stop offset="0.154283" stop-color="#BC7C14"/>
<stop offset="0.747831" stop-color="#E1A136"/>
<stop offset="0.980679" stop-color="#DB9925"/>
</linearGradient>
<linearGradient id="paint7_linear_6954_29736" x1="13" y1="16.75" x2="12" y2="17" gradientUnits="userSpaceOnUse">
<stop stop-color="#EE9614"/>
<stop offset="1" stop-color="#FFF1A8"/>
</linearGradient>
<linearGradient id="paint8_linear_6954_29736" x1="12" y1="14.5" x2="12" y2="18.5" gradientUnits="userSpaceOnUse">
<stop stop-color="#EE9614"/>
<stop offset="1" stop-color="#FFF1A8"/>
</linearGradient>
<linearGradient id="paint9_linear_6954_29736" x1="15.75" y1="18.125" x2="14.8676" y2="19.7794" gradientUnits="userSpaceOnUse">
<stop stop-color="#EE9614"/>
<stop offset="1" stop-color="#FFF1A8"/>
</linearGradient>
<linearGradient id="paint10_linear_6954_29736" x1="15.75" y1="17" x2="15.75" y2="18.5" gradientUnits="userSpaceOnUse">
<stop stop-color="#EE9614"/>
<stop offset="1" stop-color="#FFF1A8"/>
</linearGradient>
<linearGradient id="paint11_linear_6954_29736" x1="14.25" y1="20.3281" x2="12.6339" y2="21.4469" gradientUnits="userSpaceOnUse">
<stop stop-color="#EE9614"/>
<stop offset="1" stop-color="#FFF1A8"/>
</linearGradient>
<linearGradient id="paint12_linear_6954_29736" x1="14.25" y1="18.5" x2="14.25" y2="21.75" gradientUnits="userSpaceOnUse">
<stop stop-color="#EE9614"/>
<stop offset="1" stop-color="#FFF1A8"/>
</linearGradient>
<linearGradient id="paint13_linear_6954_29736" x1="12" y1="20.3281" x2="10.3839" y2="21.4469" gradientUnits="userSpaceOnUse">
<stop stop-color="#EE9614"/>
<stop offset="1" stop-color="#FFF1A8"/>
</linearGradient>
<linearGradient id="paint14_linear_6954_29736" x1="12" y1="18.5" x2="12" y2="21.75" gradientUnits="userSpaceOnUse">
<stop stop-color="#EE9614"/>
<stop offset="1" stop-color="#FFF1A8"/>
</linearGradient>
<linearGradient id="paint15_linear_6954_29736" x1="12" y1="18.125" x2="11.1176" y2="19.7794" gradientUnits="userSpaceOnUse">
<stop stop-color="#EE9614"/>
<stop offset="1" stop-color="#FFF1A8"/>
</linearGradient>
<linearGradient id="paint16_linear_6954_29736" x1="12" y1="17.25" x2="12" y2="19" gradientUnits="userSpaceOnUse">
<stop stop-color="#EE9614"/>
<stop offset="1" stop-color="#FFF1A8"/>
</linearGradient>
</defs>
</svg>
