<svg width="24" height="24" viewBox="0 0 24 24" fill="none" xmlns="http://www.w3.org/2000/svg">
<path fill-rule="evenodd" clip-rule="evenodd" d="M10.2678 12.3891C10.0725 12.5843 10.0725 12.9009 10.2678 13.0962L10.9749 13.8033C12.3417 15.1701 14.5578 15.1701 15.9246 13.8033L18.753 10.9749C20.1199 9.60804 20.1199 7.39196 18.753 6.02513C17.3862 4.65829 15.1701 4.65829 13.8033 6.02513L11.682 8.14645C11.4867 8.34171 11.4867 8.65829 11.682 8.85355C11.8772 9.04882 12.1938 9.04882 12.3891 8.85355L14.5104 6.73223C15.4867 5.75592 17.0696 5.75592 18.0459 6.73223C19.0223 7.70854 19.0223 9.29146 18.0459 10.2678L15.2175 13.0962C14.2412 14.0725 12.6583 14.0725 11.682 13.0962L10.9749 12.3891C10.7796 12.1938 10.463 12.1938 10.2678 12.3891Z" fill="black"/>
<path fill-rule="evenodd" clip-rule="evenodd" d="M6.02513 13.8033C4.65829 15.1701 4.65829 17.3862 6.02513 18.753C7.39196 20.1199 9.60804 20.1199 10.9749 18.753L13.0962 16.6317C13.2915 16.4365 13.2915 16.1199 13.0962 15.9246C12.9009 15.7294 12.5843 15.7294 12.3891 15.9246L10.2678 18.0459C9.29146 19.0223 7.70854 19.0223 6.73223 18.0459C5.75592 17.0696 5.75592 15.4867 6.73223 14.5104L9.56066 11.682C10.537 10.7057 12.1199 10.7057 13.0962 11.682L13.8033 12.3891C13.9986 12.5843 14.3151 12.5843 14.5104 12.3891C14.7057 12.1938 14.7057 11.8772 14.5104 11.682L13.8033 10.9749C12.4365 9.60804 10.2204 9.60804 8.85355 10.9749L6.02513 13.8033Z" fill="black"/>
</svg>
