<svg width="24" height="24" viewBox="0 0 24 24" fill="none" xmlns="http://www.w3.org/2000/svg">
<path fill-rule="evenodd" clip-rule="evenodd" d="M9.0083 9C7.62759 9 6.5083 10.1193 6.5083 11.5C6.5083 12.2763 6.86217 12.97 7.4174 13.4286C7.29674 13.4987 7.18032 13.577 7.06901 13.6632C6.4858 14.1148 6.18115 14.7354 6.01591 15.3747C5.9468 15.642 6.10752 15.9148 6.37487 15.9839C6.64223 16.053 6.91498 15.8923 6.98409 15.6249C7.11477 15.1193 7.32957 14.7262 7.68129 14.4538C8.06113 14.1596 8.52793 14 9.00835 14C9.48877 14 9.95558 14.1596 10.3354 14.4537C10.6812 14.7214 10.8825 15.109 11.0159 15.6252C11.085 15.8925 11.3578 16.0532 11.6252 15.9841C11.8925 15.915 12.0532 15.6422 11.9841 15.3748C11.8215 14.7461 11.5369 14.1193 10.9477 13.663C10.8364 13.5768 10.72 13.4986 10.5993 13.4285C11.1545 12.9699 11.5083 12.2763 11.5083 11.5C11.5083 10.1193 10.389 9 9.0083 9ZM7.5083 11.5C7.5083 10.6716 8.17987 10 9.0083 10C9.83673 10 10.5083 10.6716 10.5083 11.5C10.5083 12.3284 9.83673 13 9.0083 13C8.17987 13 7.5083 12.3284 7.5083 11.5Z" fill="black"/>
<path d="M13.5 11C13.5 10.7239 13.7239 10.5 14 10.5H17.5C17.7761 10.5 18 10.7239 18 11C18 11.2761 17.7761 11.5 17.5 11.5H14C13.7239 11.5 13.5 11.2761 13.5 11Z" fill="black"/>
<path d="M13.5 13.5C13.5 13.2239 13.7239 13 14 13H17.5C17.7761 13 18 13.2239 18 13.5C18 13.7761 17.7761 14 17.5 14H14C13.7239 14 13.5 13.7761 13.5 13.5Z" fill="black"/>
<path fill-rule="evenodd" clip-rule="evenodd" d="M5.125 5.5C4.48538 5.5 4 6.03354 4 6.65V18.35C4 18.9665 4.48538 19.5 5.125 19.5H18.875C19.5146 19.5 20 18.9665 20 18.35V6.65C20 6.03354 19.5146 5.5 18.875 5.5H5.125ZM5 6.65C5 6.54849 5.07427 6.5 5.125 6.5H18.875C18.9257 6.5 19 6.54849 19 6.65V18.35C19 18.4515 18.9257 18.5 18.875 18.5H5.125C5.07427 18.5 5 18.4515 5 18.35V6.65Z" fill="black"/>
</svg>
