<svg width="24" height="24" viewBox="0 0 24 24" fill="none" xmlns="http://www.w3.org/2000/svg">
<path fill-rule="evenodd" clip-rule="evenodd" d="M9.5 12.5C9.5 11.1193 10.6193 10 12 10C13.3807 10 14.5 11.1193 14.5 12.5C14.5 13.8807 13.3807 15 12 15C10.6193 15 9.5 13.8807 9.5 12.5ZM12 11C11.1716 11 10.5 11.6716 10.5 12.5C10.5 13.3284 11.1716 14 12 14C12.8284 14 13.5 13.3284 13.5 12.5C13.5 11.6716 12.8284 11 12 11Z" fill="black"/>
<path fill-rule="evenodd" clip-rule="evenodd" d="M8.78567 7.5H15.2143C15.2143 7.5 15.2144 7.5 15.2143 7.5H18.9643C19.559 7.5 20 7.99897 20 8.5625V11.9353C20 11.9369 20 11.9384 20 11.9399V13.0537C20.0001 13.0595 20.0001 13.0652 20 13.071V16.4375C20 17.001 19.559 17.5 18.9643 17.5H5.03571C4.441 17.5 4 17.001 4 16.4375V11.9377C4 11.9378 4 11.9377 4 11.9377V8.5625C4 7.99897 4.441 7.5 5.03571 7.5H8.78567C8.78561 7.5 8.78572 7.5 8.78567 7.5ZM5 12.1571V12.8429L8.98055 16.5H15.0195L19 12.8429V12.1571L15.0195 8.5H8.98054L5 12.1571ZM7.50247 8.5L5 10.7991V8.5625C5 8.5373 5.00937 8.51967 5.01898 8.50958C5.0281 8.5 5.03389 8.5 5.03571 8.5H7.50247ZM16.4975 8.5L19 10.7991V8.5625C19 8.5373 18.9906 8.51967 18.981 8.50958C18.9719 8.5 18.9662 8.5 18.9643 8.5H16.4975ZM19 14.2009L16.4976 16.5H18.9643C18.9661 16.5 18.9719 16.5 18.981 16.4904C18.9906 16.4803 19 16.4627 19 16.4375V14.2009ZM7.50248 16.5L5 14.2008V16.4375C5 16.4627 5.00937 16.4803 5.01898 16.4904C5.0281 16.5 5.03385 16.5 5.03567 16.5H7.50248Z" fill="black"/>
</svg>
