<svg width="24" height="24" viewBox="0 0 24 24" fill="none" xmlns="http://www.w3.org/2000/svg">
<path fill-rule="evenodd" clip-rule="evenodd" d="M11.0535 5.39338C11.5729 4.87099 12.4171 4.86858 12.9396 5.38797L13.5317 5.97932C13.969 6.41347 14.5592 6.65713 15.1754 6.65713H16.0088C16.7453 6.65713 17.3425 7.25382 17.3425 7.99089V8.82346C17.3425 9.43939 17.586 10.0306 18.0203 10.468L18.0215 10.4692L18.6052 11.0529L18.6062 11.0539C19.1288 11.5735 19.131 12.418 18.6123 12.9402L18.0215 13.531L18.0207 13.5318C17.5861 13.9685 17.3425 14.5591 17.3425 15.1751V16.0093C17.3425 16.7457 16.7459 17.3423 16.0096 17.3423H15.1738C14.5574 17.3423 13.9655 17.5875 13.5291 18.0219L12.9454 18.6048L12.944 18.6062C12.4251 19.1286 11.5815 19.1315 11.0592 18.6133L11.0581 18.6123L10.468 18.0221L10.4672 18.0213C10.0303 17.5865 9.43829 17.3433 8.82307 17.3423H7.99052C7.25415 17.3423 6.65761 16.7457 6.65761 16.0093V15.1735C6.65761 14.5569 6.41221 13.9659 5.978 13.5296L5.39514 12.9459L5.39368 12.9445C4.87132 12.4256 4.86842 11.5821 5.38717 11.0598C5.39243 11.0545 5.39758 11.0491 5.4026 11.0436L5.978 10.4674L5.97901 10.4663C6.41283 10.0294 6.65761 9.43927 6.65761 8.82183V7.99089C6.65761 7.25456 7.25416 6.65772 7.99092 6.65713H8.82469C9.44136 6.65713 10.0313 6.41232 10.468 5.97974L10.4699 5.97782L11.0535 5.39338ZM10.3448 4.68786C11.2507 3.7773 12.7208 3.77026 13.6354 4.66973C13.6417 4.67542 13.6479 4.68128 13.6539 4.68728L14.2369 5.27024C14.487 5.51835 14.8239 5.65713 15.1754 5.65713H16.0088C17.2973 5.65713 18.3425 6.70166 18.3425 7.99129V8.82346C18.3425 9.17526 18.4819 9.51339 18.7299 9.76338L19.3119 10.3454C20.2251 11.254 20.2304 12.7311 19.3214 13.6453L19.3201 13.6466L19.3193 13.6474L18.729 14.2378C18.4813 14.4869 18.3425 14.8235 18.3425 15.1751V16.0093C18.3425 17.298 17.2983 18.3423 16.0096 18.3423H15.1738C14.8224 18.3423 14.4845 18.482 14.2351 18.7301L13.6535 19.3109L13.6526 19.3118C12.7446 20.225 11.2688 20.2299 10.3549 19.3232L10.3535 19.3218L9.76127 18.7296C9.51248 18.4822 9.17454 18.343 8.82223 18.3422L7.99052 18.3423C6.70185 18.3423 5.65761 17.298 5.65761 16.0093V15.1735C5.65761 14.8223 5.51797 14.4851 5.2698 14.2356L4.68831 13.6533C3.78032 12.7507 3.76996 11.2868 4.66144 10.3716C4.6676 10.3647 4.67395 10.358 4.68048 10.3515L5.26979 9.76135C5.51829 9.51086 5.65761 9.17378 5.65761 8.82183V7.99089C5.65761 6.70214 6.70224 5.65817 7.99052 5.65713L8.82469 5.65713C9.17551 5.65713 9.51262 5.51803 9.76327 5.27021L10.3448 4.68786Z" fill="black"/>
<path fill-rule="evenodd" clip-rule="evenodd" d="M15.8536 9.64645C16.0488 9.84171 16.0488 10.1583 15.8536 10.3536L11.8536 14.3536C11.6583 14.5488 11.3417 14.5488 11.1464 14.3536L8.64645 11.8536C8.45118 11.6583 8.45118 11.3417 8.64645 11.1464C8.84171 10.9512 9.15829 10.9512 9.35355 11.1464L11.5 13.2929L15.1464 9.64645C15.3417 9.45118 15.6583 9.45118 15.8536 9.64645Z" fill="black"/>
</svg>
