<svg width="24" height="24" viewBox="0 0 24 24" fill="none" xmlns="http://www.w3.org/2000/svg">
<path fill-rule="evenodd" clip-rule="evenodd" d="M5.5 5C5.22386 5 5 5.22386 5 5.5V18.5C5 18.7761 5.22386 19 5.5 19H15C15.2761 19 15.5 18.7761 15.5 18.5V9H13C12.1716 9 11.5 8.32843 11.5 7.5V5H5.5ZM12.5 5.70711L14.7929 8H13C12.7239 8 12.5 7.77614 12.5 7.5V5.70711ZM4 5.5C4 4.67157 4.67157 4 5.5 4H12.2071L16.5 8.29289V18.5C16.5 19.3284 15.8284 20 15 20H5.5C4.67157 20 4 19.3284 4 18.5V5.5ZM15.6464 4.14645C15.8417 3.95118 16.1583 3.95118 16.3536 4.14645L19.5607 7.35355C19.842 7.63486 20 8.01639 20 8.41421V18.5C20 19.3284 19.3284 20 18.5 20H18C17.7239 20 17.5 19.7761 17.5 19.5C17.5 19.2239 17.7239 19 18 19H18.5C18.7761 19 19 18.7761 19 18.5V8.41421C19 8.28161 18.9473 8.15443 18.8536 8.06066L15.6464 4.85355C15.4512 4.65829 15.4512 4.34171 15.6464 4.14645ZM6 9.5C6 9.22386 6.22386 9 6.5 9H10C10.2761 9 10.5 9.22386 10.5 9.5C10.5 9.77614 10.2761 10 10 10H6.5C6.22386 10 6 9.77614 6 9.5ZM6 12.5C6 12.2239 6.22386 12 6.5 12H14C14.2761 12 14.5 12.2239 14.5 12.5C14.5 12.7761 14.2761 13 14 13H6.5C6.22386 13 6 12.7761 6 12.5ZM6 15.5C6 15.2239 6.22386 15 6.5 15H14C14.2761 15 14.5 15.2239 14.5 15.5C14.5 15.7761 14.2761 16 14 16H6.5C6.22386 16 6 15.7761 6 15.5Z" fill="black"/>
</svg>
