<svg width="24" height="24" viewBox="0 0 24 24" fill="none" xmlns="http://www.w3.org/2000/svg">
<path fill-rule="evenodd" clip-rule="evenodd" d="M5.35759 12.5163C5.22476 12.3037 5.12558 12.1261 5.05889 12C5.12558 11.8739 5.22476 11.6963 5.35759 11.4837C5.63638 11.0377 6.06038 10.4428 6.63925 9.84905C7.79615 8.66249 9.54989 7.5 12 7.5C14.4501 7.5 16.2039 8.66249 17.3608 9.84905C17.9396 10.4428 18.3636 11.0377 18.6424 11.4837C18.7752 11.6963 18.8744 11.8739 18.9411 12C18.8744 12.1261 18.7752 12.3037 18.6424 12.5163C18.3636 12.9623 17.9396 13.5572 17.3608 14.1509C16.2039 15.3375 14.4501 16.5 12 16.5C9.54989 16.5 7.79615 15.3375 6.63925 14.1509C6.06038 13.5572 5.63638 12.9623 5.35759 12.5163ZM19.9558 11.7944C19.9559 11.7946 19.956 11.7948 19.5 12C19.956 12.2052 19.9559 12.2054 19.9558 12.2056L19.9555 12.2062L19.9548 12.2077L19.9529 12.212L19.9464 12.2259C19.941 12.2375 19.9333 12.2538 19.9233 12.2743C19.9034 12.3155 19.8743 12.374 19.8358 12.4473C19.7588 12.5938 19.6442 12.8001 19.4904 13.0462C19.1833 13.5377 18.7166 14.1928 18.0767 14.8491C16.7961 16.1625 14.7999 17.5 12 17.5C9.20011 17.5 7.20385 16.1625 5.92325 14.8491C5.28337 14.1928 4.81674 13.5377 4.50959 13.0462C4.35575 12.8001 4.24117 12.5938 4.16423 12.4473C4.12575 12.374 4.09663 12.3155 4.07667 12.2743C4.06669 12.2538 4.059 12.2375 4.05357 12.2259L4.04712 12.212L4.04516 12.2077L4.04449 12.2062L4.04424 12.2056C4.04414 12.2054 4.04404 12.2052 4.5 12C4.04404 11.7948 4.04414 11.7946 4.04424 11.7944L4.04449 11.7938L4.04516 11.7923L4.04712 11.788L4.05357 11.7741C4.059 11.7625 4.06669 11.7462 4.07667 11.7257C4.09663 11.6845 4.12575 11.626 4.16423 11.5527C4.24117 11.4062 4.35575 11.1999 4.50959 10.9538C4.81674 10.4623 5.28337 9.80724 5.92325 9.15095C7.20385 7.83751 9.20011 6.5 12 6.5C14.7999 6.5 16.7961 7.83751 18.0767 9.15095C18.7166 9.80724 19.1833 10.4623 19.4904 10.9538C19.6442 11.1999 19.7588 11.4062 19.8358 11.5527C19.8743 11.626 19.9034 11.6845 19.9233 11.7257C19.9333 11.7462 19.941 11.7625 19.9464 11.7741L19.9529 11.788L19.9548 11.7923L19.9555 11.7938L19.9558 11.7944ZM4.5 12L4.04404 12.2052C3.98532 12.0747 3.98532 11.9253 4.04404 11.7948L4.5 12ZM19.5 12L19.956 11.7948C20.0147 11.9253 20.0147 12.0747 19.956 12.2052L19.5 12ZM10.5 12C10.5 11.1716 11.1716 10.5 12 10.5C12.8284 10.5 13.5 11.1716 13.5 12C13.5 12.8284 12.8284 13.5 12 13.5C11.1716 13.5 10.5 12.8284 10.5 12ZM12 9.5C10.6193 9.5 9.5 10.6193 9.5 12C9.5 13.3807 10.6193 14.5 12 14.5C13.3807 14.5 14.5 13.3807 14.5 12C14.5 10.6193 13.3807 9.5 12 9.5Z" fill="black"/>
</svg>
