<svg width="16" height="16" viewBox="0 0 16 16" fill="none" xmlns="http://www.w3.org/2000/svg">
<path fill-rule="evenodd" clip-rule="evenodd" d="M8 15C4.13401 15 1 11.866 1 8C1 4.13401 4.13401 1 8 1C11.866 1 15 4.13401 15 8C15 11.866 11.866 15 8 15ZM0 8C0 3.58172 3.58172 0 8 0C12.4183 0 16 3.58172 16 8C16 12.4183 12.4183 16 8 16C3.58172 16 0 12.4183 0 8ZM8.02481 3.5C7.20348 3.5 6.46577 3.86069 5.96261 4.43066C5.72991 4.69426 5.54667 5.00326 5.42799 5.34312C5.33695 5.60382 5.47449 5.88897 5.7352 5.98C5.9959 6.07104 6.28105 5.9335 6.37208 5.6728C6.4473 5.4574 6.56372 5.26076 6.71229 5.09247C7.03368 4.7284 7.50226 4.5 8.02481 4.5C8.9913 4.5 9.77481 5.2835 9.77481 6.25C9.77481 6.73416 9.57885 7.17161 9.2607 7.48897C9.2093 7.54025 9.1184 7.59895 8.93058 7.71526C8.76437 7.81819 8.54615 7.95357 8.33871 8.13383C7.89735 8.51738 7.52481 9.0873 7.52481 10C7.52481 10.2761 7.74866 10.5 8.02481 10.5C8.30095 10.5 8.52481 10.2761 8.52481 10C8.52481 9.4127 8.74326 9.10711 8.99465 8.88864C9.1336 8.7679 9.28719 8.67064 9.45707 8.56544L9.4889 8.54578C9.63425 8.45609 9.82543 8.33811 9.96694 8.19695C10.4655 7.69966 10.7748 7.01049 10.7748 6.25C10.7748 4.73122 9.54359 3.5 8.02481 3.5ZM8.50004 12C8.50004 12.2761 8.27618 12.5 8.00004 12.5C7.7239 12.5 7.50004 12.2761 7.50004 12C7.50004 11.7239 7.7239 11.5 8.00004 11.5C8.27618 11.5 8.50004 11.7239 8.50004 12Z" fill="black"/>
</svg>
