<svg width="24" height="24" viewBox="0 0 24 24" fill="none" xmlns="http://www.w3.org/2000/svg">
<path fill-rule="evenodd" clip-rule="evenodd" d="M19.5 5.5C19.7761 5.5 20 5.72386 20 6V9.5C20 9.77614 19.7761 10 19.5 10H16C15.7239 10 15.5 9.77614 15.5 9.5C15.5 9.22386 15.7239 9 16 9H19V6C19 5.72386 19.2239 5.5 19.5 5.5Z" fill="black"/>
<path fill-rule="evenodd" clip-rule="evenodd" d="M12 5C8.13401 5 5 8.13401 5 12C5 15.866 8.13401 19 12 19C13.7931 19 15.4278 18.3264 16.6665 17.2177C16.8723 17.0335 17.1884 17.051 17.3726 17.2568C17.5567 17.4626 17.5392 17.7787 17.3335 17.9628C15.9184 19.2293 14.0486 20 12 20C7.58172 20 4 16.4183 4 12C4 7.58172 7.58172 4 12 4C14.3694 4 16.4987 5.03068 17.9628 6.66654C18.3032 7.04681 18.7935 7.68968 19.1888 8.22263C19.3888 8.49217 19.5682 8.73881 19.6977 8.91803C19.7625 9.00768 19.8148 9.08056 19.851 9.13111L19.8927 9.18953L19.9073 9.20994C20.0672 9.43503 20.0147 9.74758 19.7897 9.90755C19.5646 10.0675 19.2524 10.0147 19.0924 9.78965L19.0786 9.77017L19.0379 9.71322C19.0024 9.66369 18.9509 9.59197 18.8871 9.5036C18.7594 9.32679 18.5825 9.08369 18.3857 8.8184C17.9875 8.28169 17.523 7.67456 17.2177 7.33346C15.9352 5.90058 14.0731 5 12 5Z" fill="black"/>
</svg>
