<svg width="24" height="24" viewBox="0 0 24 24" fill="none" xmlns="http://www.w3.org/2000/svg">
<path fill-rule="evenodd" clip-rule="evenodd" d="M11.4119 4.0795C11.6271 4.03479 11.8385 4 12 4C12.1614 4 12.3728 4.03479 12.588 4.0795C12.8144 4.12652 13.0837 4.19305 13.3776 4.27263C13.9662 4.43195 14.6712 4.64835 15.3632 4.87929C16.0549 5.11013 16.7405 5.3578 17.2894 5.58044C17.5633 5.69154 17.8091 5.79881 18.0069 5.89663C18.186 5.98519 18.3819 6.0923 18.5078 6.21156C18.6891 6.38345 18.8291 6.57669 18.9087 6.86793C18.9784 7.12282 18.9964 7.43623 18.9995 7.83534C19.0021 8.16091 18.9941 8.57983 18.9838 9.12041V9.12043V9.12046V9.12049L18.9757 9.55126C18.9619 10.3109 18.9473 11.2879 18.9473 12.5576C18.9473 15.3447 17.1778 17.2122 15.5053 18.3524C14.6639 18.9259 13.826 19.3312 13.2003 19.5929C12.9668 19.7286 12.3999 20 12 20C11.6 20 11.0331 19.7286 10.7996 19.5929C10.1739 19.3312 9.33604 18.9259 8.49463 18.3524C6.8221 17.2122 5.05258 15.3447 5.05258 12.5576C5.05258 11.2879 5.03802 10.3109 5.02424 9.55125L5.01622 9.12302C5.0059 8.58117 4.99791 8.1614 5.00049 7.83527C5.00364 7.43614 5.02177 7.12263 5.09161 6.86764C5.17139 6.57638 5.31133 6.38346 5.49275 6.2117C5.61873 6.09237 5.81462 5.98514 5.99347 5.89667C6.19124 5.79883 6.43699 5.69156 6.71081 5.58046C7.25957 5.3578 7.94511 5.11013 8.63678 4.87929C9.32875 4.64835 10.0338 4.43195 10.6223 4.27263C10.9162 4.19305 11.1855 4.12652 11.4119 4.0795ZM12 18.9762C11.967 18.9654 11.9286 18.9526 11.8852 18.9377C11.7178 18.8803 11.4764 18.7921 11.1855 18.6704C10.6023 18.4264 9.82833 18.0513 9.0579 17.5261C7.50674 16.4687 6.05258 14.865 6.05258 12.5576C6.05258 11.2798 6.03792 10.2964 6.02408 9.53311L6.0159 9.09582V9.09582V9.09581C6.00563 8.55612 5.998 8.15453 6.00046 7.84317C6.0036 7.44472 6.02414 7.24845 6.05608 7.13182C6.07807 7.05154 6.10301 7.011 6.18035 6.93779L6.1792 6.93891C6.1792 6.93891 6.19572 6.9255 6.24029 6.89857C6.28811 6.86967 6.35329 6.83434 6.43686 6.79299C6.60387 6.71038 6.82461 6.61346 7.08678 6.50709C7.61 6.2948 8.27447 6.05443 8.95336 5.82786C9.63194 5.60138 10.318 5.391 10.8836 5.23789C11.1667 5.16124 11.4153 5.10014 11.6153 5.0586C11.8265 5.01473 11.9501 5 12 5C12.0498 5 12.1734 5.01473 12.3846 5.0586C12.5846 5.10014 12.8332 5.16124 13.1163 5.23789C13.6819 5.391 14.368 5.60139 15.0467 5.82786C15.7256 6.05444 16.3902 6.29481 16.9135 6.5071C17.1757 6.61348 17.3966 6.7104 17.5637 6.79303C17.6473 6.83438 17.7125 6.86973 17.7604 6.89865C17.8052 6.92567 17.8218 6.93913 17.8218 6.93913L17.8204 6.93779C17.8973 7.01073 17.9222 7.05125 17.9441 7.13153C17.976 7.24827 17.9965 7.44462 17.9995 7.84311C18.0018 8.13455 17.9952 8.50509 17.986 8.99386L17.9841 9.09321L17.9758 9.5331C17.962 10.2964 17.9473 11.2798 17.9473 12.5576C17.9473 14.865 16.4932 16.4687 14.942 17.5261C14.1716 18.0513 13.3976 18.4264 12.8144 18.6704C12.5235 18.7921 12.2821 18.8803 12.1147 18.9377C12.0713 18.9526 12.0329 18.9654 12 18.9762ZM15.468 10.3535C15.6632 10.1582 15.6631 9.84157 15.4678 9.64636C15.2725 9.45114 14.9559 9.45123 14.7607 9.64654L11.3348 13.0742L9.85383 11.5909C9.65873 11.3955 9.34214 11.3952 9.14673 11.5903C8.95131 11.7855 8.95106 12.102 9.14617 12.2975L10.9808 14.135C11.0745 14.2289 11.2018 14.2817 11.3345 14.2817C11.4672 14.2817 11.5944 14.229 11.6883 14.1352L15.468 10.3535Z" fill="black"/>
</svg>
