<svg width="24" height="24" viewBox="0 0 24 24" fill="none" xmlns="http://www.w3.org/2000/svg">
<path fill-rule="evenodd" clip-rule="evenodd" d="M7.82843 6.5C7.16539 6.5 6.5295 6.76339 6.06066 7.23223L5.23223 8.06066C4.76339 8.5295 4.5 9.16539 4.5 9.82843V14.9296C4.5 15.7655 4.91775 16.5461 5.61325 17.0098L9.48011 19.5877C10.4013 20.2018 11.6168 20.1369 12.4673 19.4281L17.2131 15.4733C18.4028 15.3614 19.5 14.4189 19.5 12.9796V10.2361C19.5 9.28914 18.965 8.42348 18.118 8L15.6459 6.76393C15.2988 6.59036 14.916 6.5 14.5279 6.5H13.7241C13.1393 6.5 12.5729 6.70504 12.1236 7.07945L11.3919 7.68926C11.3478 7.63366 11.2912 7.5866 11.2236 7.55279L9.6459 6.76393C9.29876 6.59036 8.91598 6.5 8.52786 6.5H7.82843ZM10.5926 8.35532L9.19868 7.65836C8.9904 7.55422 8.76073 7.5 8.52786 7.5H7.82843C7.4306 7.5 7.04907 7.65804 6.76777 7.93934L5.93934 8.76777C5.65803 9.04907 5.5 9.4306 5.5 9.82843V14.9296C5.5 15.4312 5.75065 15.8995 6.16795 16.1777L10.0348 18.7556C10.5875 19.1241 11.3168 19.0851 11.8271 18.6599L15.9221 15.2474C15.5784 15.0825 15.2605 14.8284 14.997 14.4756L14.0543 13.2134C13.6017 12.6074 12.7688 12.4331 12.1113 12.8068L10.256 13.8613C9.46438 14.3112 8.46969 14.1768 7.82581 13.5329C6.98459 12.6917 7.04728 11.3097 7.96121 10.5481L10.5926 8.35532ZM15.1987 7.65836C14.9904 7.55422 14.7607 7.5 14.5279 7.5H13.7241C13.3732 7.5 13.0334 7.62302 12.7638 7.84767L8.60139 11.3164C8.1392 11.7015 8.1075 12.4004 8.53292 12.8258C8.85854 13.1514 9.36157 13.2194 9.76192 12.9919L11.6172 11.9374C12.7131 11.3146 14.1013 11.605 14.8555 12.615L15.7982 13.8772C16.6617 15.0334 18.5 14.4227 18.5 12.9796V10.2361C18.5 9.66791 18.179 9.14852 17.6708 8.89443L15.1987 7.65836ZM3.5 7.5C3.77614 7.5 4 7.72386 4 8V17C4 17.2761 3.77614 17.5 3.5 17.5C3.22386 17.5 3 17.2761 3 17V8C3 7.72386 3.22386 7.5 3.5 7.5ZM21 8C21 7.72386 20.7761 7.5 20.5 7.5C20.2239 7.5 20 7.72386 20 8V17C20 17.2761 20.2239 17.5 20.5 17.5C20.7761 17.5 21 17.2761 21 17V8Z" fill="black"/>
</svg>
