<svg width="24" height="24" viewBox="0 0 24 24" fill="none" xmlns="http://www.w3.org/2000/svg">
<path fill-rule="evenodd" clip-rule="evenodd" d="M6.49233 5.80062C7.05464 5.23831 7.99567 5.35416 8.40481 6.03606L12 12.028V8.5C12 7.67157 12.6716 7 13.5 7H16.5C17.3284 7 18 7.67157 18 8.5V11.1096L18.8638 11.3256C19.5316 11.4925 20 12.0925 20 12.7808V15.5C20 16.3284 19.3284 17 18.5 17H18C18 18.1046 17.1046 19 16 19C14.8954 19 14 18.1046 14 17H10C10 18.1046 9.10457 19 8 19C6.89543 19 6 18.1046 6 17H5.5C4.67157 17 4 16.3284 4 15.5V14.5C4 13.6716 4.67157 13 5.5 13H8.74181L6.62519 8.06123L6.17974 9.84304C6.12824 10.049 6.22506 10.3286 6.49868 10.5753C6.61329 10.6786 6.73116 10.8033 6.82334 10.9462C6.91412 11.0869 7.00011 11.2767 7.00011 11.5C7.00011 11.9117 6.79156 12.3508 6.34872 12.5722C5.90719 12.793 5.3573 12.7376 4.7765 12.4472C4.52951 12.3237 4.4294 12.0234 4.5529 11.7764C4.67639 11.5294 4.97673 11.4293 5.22372 11.5528C5.64292 11.7624 5.84302 11.707 5.9015 11.6778C5.95485 11.6511 5.99451 11.5963 5.99956 11.5173C5.99672 11.5112 5.99165 11.5016 5.98303 11.4883C5.95455 11.4441 5.90429 11.3858 5.82903 11.3179C5.40646 10.9369 5.03373 10.3039 5.20959 9.60051L6.01504 6.37873C6.05478 6.21978 6.1665 6.0978 6.30676 6.03886C6.35776 5.95334 6.41976 5.87319 6.49233 5.80062ZM7.54732 6.55056L11.417 13H9.82978L7.15229 6.75254C7.11648 6.66897 7.13515 6.57202 7.19944 6.50773C7.30172 6.40545 7.47289 6.42652 7.54732 6.55056ZM17.7324 16H18.5C18.7761 16 19 15.7761 19 15.5V12.7808C19 12.5513 18.8439 12.3514 18.6213 12.2957L17.4384 12H13V16H14.2676C14.6134 15.4022 15.2597 15 16 15C16.7403 15 17.3866 15.4022 17.7324 16ZM9.73244 16H12V14H5.5C5.22386 14 5 14.2239 5 14.5V15.5C5 15.7761 5.22386 16 5.5 16H6.26756C6.61337 15.4022 7.25972 15 8 15C8.74028 15 9.38663 15.4022 9.73244 16ZM17 11H13V8.5C13 8.22386 13.2239 8 13.5 8H16.5C16.7761 8 17 8.22386 17 8.5V11ZM8 18C8.55228 18 9 17.5523 9 17C9 16.4477 8.55228 16 8 16C7.44772 16 7 16.4477 7 17C7 17.5523 7.44772 18 8 18ZM16 18C16.5523 18 17 17.5523 17 17C17 16.4477 16.5523 16 16 16C15.4477 16 15 16.4477 15 17C15 17.5523 15.4477 18 16 18Z" fill="black"/>
</svg>
