<svg width="24" height="24" viewBox="0 0 24 24" fill="none" xmlns="http://www.w3.org/2000/svg">
<path d="M12.7114 9.51669C12.9067 9.32142 13.2232 9.32142 13.4185 9.51669L15.0115 11.1097C15.1046 11.2005 15.1624 11.3273 15.1624 11.4677C15.1624 11.6097 15.1032 11.7378 15.0081 11.8289L13.4185 13.4185C13.2232 13.6138 12.9067 13.6138 12.7114 13.4185C12.5161 13.2232 12.5161 12.9067 12.7114 12.7114L13.4551 11.9677H10.9352C10.6442 11.9677 10.3651 12.0833 10.1593 12.2891C9.9535 12.4949 9.83789 12.774 9.83789 13.065V13.5975C9.83789 13.8736 9.61403 14.0975 9.33789 14.0975C9.06175 14.0975 8.83789 13.8736 8.83789 13.5975V13.065C8.83789 12.5088 9.05886 11.9753 9.45219 11.582C9.84552 11.1886 10.379 10.9677 10.9352 10.9677H13.4552L12.7114 10.2238C12.5161 10.0285 12.5161 9.71195 12.7114 9.51669Z" fill="black"/>
<path fill-rule="evenodd" clip-rule="evenodd" d="M11.2699 4.3024C11.6731 3.8992 12.3269 3.8992 12.7301 4.3024L19.6976 11.2699C20.1008 11.6731 20.1008 12.3269 19.6976 12.7301L12.7301 19.6976C12.3269 20.1008 11.6731 20.1008 11.2699 19.6976L4.3024 12.7301C3.8992 12.3269 3.8992 11.6731 4.3024 11.2699L11.2699 4.3024ZM12.0229 5.0095C12.0103 4.99683 11.9897 4.99683 11.9771 5.0095L5.0095 11.9771C4.99683 11.9897 4.99683 12.0103 5.0095 12.0229L11.9771 18.9905C11.9897 19.0032 12.0103 19.0032 12.0229 18.9905L18.9905 12.0229C19.0032 12.0103 19.0032 11.9897 18.9905 11.9771L12.0229 5.0095Z" fill="black"/>
</svg>
