<svg width="24" height="24" viewBox="0 0 24 24" fill="none" xmlns="http://www.w3.org/2000/svg">
<path fill-rule="evenodd" clip-rule="evenodd" d="M8 9V18C8 18.5523 8.44772 19 9 19H15C15.5523 19 16 18.5523 16 18V9H8ZM7.5 8C7.22386 8 7 8.22386 7 8.5V18C7 19.1046 7.89543 20 9 20H15C16.1046 20 17 19.1046 17 18V8.5C17 8.22386 16.7761 8 16.5 8H7.5Z" fill="black"/>
<path fill-rule="evenodd" clip-rule="evenodd" d="M10.5 11C10.7761 11 11 11.2239 11 11.5V16.5C11 16.7761 10.7761 17 10.5 17C10.2239 17 10 16.7761 10 16.5V11.5C10 11.2239 10.2239 11 10.5 11ZM13.5 11C13.7761 11 14 11.2239 14 11.5V16.5C14 16.7761 13.7761 17 13.5 17C13.2239 17 13 16.7761 13 16.5V11.5C13 11.2239 13.2239 11 13.5 11Z" fill="black"/>
<path fill-rule="evenodd" clip-rule="evenodd" d="M9 5.5C9 5.22386 9.22386 5 9.5 5H14.5C14.7761 5 15 5.22386 15 5.5C15 5.77614 14.7761 6 14.5 6H9.5C9.22386 6 9 5.77614 9 5.5ZM6 7C6 6.72386 6.22386 6.5 6.5 6.5H17.5C17.7761 6.5 18 6.72386 18 7C18 7.27614 17.7761 7.5 17.5 7.5H6.5C6.22386 7.5 6 7.27614 6 7Z" fill="black"/>
</svg>
