<svg width="24" height="24" viewBox="0 0 24 24" fill="none" xmlns="http://www.w3.org/2000/svg">
<path fill-rule="evenodd" clip-rule="evenodd" d="M4 12C4 7.58172 7.58172 4 12 4C16.4183 4 20 7.58172 20 12C20 16.4183 16.4183 20 12 20C7.58172 20 4 16.4183 4 12ZM6.70927 16.5836C5.64441 15.3556 5 13.753 5 12C5 8.13401 8.13401 5 12 5C13.753 5 15.3556 5.64441 16.5836 6.70927L6.70927 16.5836ZM7.41638 17.2907C8.64444 18.3556 10.247 19 12 19C15.866 19 19 15.866 19 12C19 10.247 18.3556 8.64444 17.2907 7.41638L7.41638 17.2907Z" fill="black"/>
</svg>
