<svg width="16" height="16" viewBox="0 0 16 16" fill="none" xmlns="http://www.w3.org/2000/svg">
<path fill-rule="evenodd" clip-rule="evenodd" d="M0.140221 6.50883C-0.160565 8.09425 0.0264103 9.72542 0.664032 11.1912C0.796466 11.4956 0.948586 11.7933 1.11957 12.0816L0.329822 14.8457C0.297146 14.96 0.295647 15.0811 0.325482 15.1962C0.355317 15.3113 0.415399 15.4164 0.499503 15.5005C0.583607 15.5846 0.688671 15.6447 0.803809 15.6745C0.918947 15.7044 1.03997 15.7029 1.15433 15.6702L3.91857 14.8805C5.59481 15.8748 7.57639 16.2231 9.49121 15.8598C11.406 15.4965 13.1224 14.4467 14.318 12.9074C15.5136 11.3682 16.1061 9.4455 15.9844 7.50031C15.8626 5.55513 15.035 3.72128 13.6568 2.34314C12.2787 0.964992 10.4448 0.137351 8.49964 0.0156271C6.55445 -0.106097 4.63173 0.486468 3.09252 1.68205C1.55332 2.87764 0.503505 4.594 0.140221 6.50883ZM1.1227 6.69523C0.805727 8.36594 1.1078 10.0947 1.97217 11.5588C2.11505 11.792 2.15999 12.0802 2.08112 12.3562L1.45604 14.544L3.64381 13.9189C3.91574 13.8412 4.20434 13.883 4.4403 14.0273C5.90456 14.8921 7.63374 15.1943 9.30481 14.8773C10.9803 14.5594 12.4821 13.6408 13.5282 12.294C14.5744 10.9472 15.0928 9.26482 14.9863 7.56278C14.8798 5.86073 14.1556 4.25612 12.9497 3.05024C11.7438 1.84437 10.1392 1.12018 8.43719 1.01367C6.73515 0.907166 5.05277 1.42566 3.70596 2.4718C2.35915 3.51793 1.44057 5.01975 1.1227 6.69523ZM4.02119 4.34127C4.4588 3.90544 5.05141 3.66097 5.66902 3.6615C5.97043 3.6615 6.12722 3.85452 6.16794 3.95103L7.1426 5.65669C7.20138 5.75955 7.2317 5.87621 7.23044 5.99468C7.22918 6.11315 7.19639 6.22914 7.13543 6.33073L6.35268 7.63531C6.75539 8.52899 7.47098 9.24458 8.36467 9.64729L9.66925 8.86455C9.77084 8.80359 9.88683 8.7708 10.0053 8.76954C10.1238 8.76828 10.2404 8.7986 10.3433 8.85738L12.0489 9.83203C12.1369 9.88229 12.21 9.95491 12.2608 10.0425C12.3117 10.1301 12.3385 10.2296 12.3385 10.3309C12.3367 10.9479 12.0915 11.5391 11.6562 11.9763C11.2208 12.4134 10.6305 12.661 10.0136 12.6653C9.13621 12.6665 8.26715 12.4946 7.45626 12.1594C6.64537 11.8242 5.9086 11.3323 5.28815 10.7118C4.66771 10.0914 4.17579 9.3546 3.84059 8.54372C3.50538 7.73283 3.33348 6.86377 3.33472 5.98633C3.33671 5.36872 3.58358 4.77711 4.02119 4.34127ZM10.9476 11.2706C11.1405 11.077 11.2682 10.8305 11.3166 10.5653L10.0165 9.82239L8.87916 10.5048C8.59822 10.6733 8.25254 10.6936 7.95384 10.559C6.83767 10.056 5.94393 9.16231 5.44097 8.04614C5.30637 7.74744 5.32663 7.40175 5.49519 7.12081L6.17759 5.98348L5.43391 4.68205C5.16805 4.7293 4.9208 4.85666 4.72686 5.04982C4.47707 5.29859 4.33607 5.63622 4.33472 5.98873C4.33379 6.73427 4.47992 7.47269 4.76474 8.16169C5.04968 8.851 5.46784 9.4773 5.99526 10.0047C6.52268 10.5321 7.14898 10.9503 7.83828 11.2352C8.52666 11.5198 9.26434 11.6659 10.0092 11.6653C10.3617 11.6622 10.6988 11.5204 10.9476 11.2706Z" fill="black"/>
</svg>
